<svg height="30" viewBox="0 0 86 30" width="86" xmlns="http://www.w3.org/2000/svg"><g fill="none"><path d="M6.775 29.049c-.21 0-.421-.003-.652-.008a9.059 9.059 0 01-1.381-.121 4.537 4.537 0 01-1.278-.422 4.186 4.186 0 01-1.085-.786 4.157 4.157 0 01-.795-1.084 4.43 4.43 0 01-.42-1.277 8.767 8.767 0 01-.124-1.382 53.663 53.663 0 01-.011-.657V6.968c.004-.328.008-.54.01-.637a8.65 8.65 0 01.124-1.379c.081-.47.219-.889.42-1.281A4.336 4.336 0 014.74 1.375a9.041 9.041 0 011.391-.123l.646-.008h72.898l.651.01c.523.012.954.044 1.375.12.462.08.884.219 1.29.422.399.204.764.47 1.08.786.317.312.583.677.798 1.09.199.394.335.813.414 1.269.074.406.108.808.129 1.398.002.163.002.312.002.603v.022c.005.2.006.387.006.674v14.91a40.527 40.527 0 01-.006.76l-.001.499-.002.173c-.02.566-.054.968-.126 1.36-.08.47-.216.89-.42 1.291-.21.403-.476.767-.787 1.072a4.23 4.23 0 01-1.089.793 4.537 4.537 0 01-1.287.424c-.41.074-.817.105-1.383.121-.217.005-.438.008-.645.008l-.77.001-72.128-.001z" fill="#000" stroke="#979797" stroke-width=".75"/><path d="M18.354 15.359c-.018-1.946 1.597-2.893 1.672-2.938-.915-1.33-2.333-1.511-2.831-1.525-1.192-.125-2.347.71-2.954.71-.618 0-1.552-.698-2.559-.678-1.295.02-2.508.769-3.173 1.93-1.371 2.369-.348 5.85.966 7.763.657.938 1.426 1.986 2.431 1.948.984-.04 1.351-.626 2.54-.626 1.176 0 1.52.626 2.546.603 1.056-.018 1.721-.942 2.355-1.888.76-1.076 1.065-2.134 1.077-2.188-.024-.008-2.05-.779-2.07-3.111zm-1.938-5.722c.53-.66.892-1.557.791-2.469-.766.034-1.723.528-2.275 1.174-.488.569-.924 1.501-.811 2.377.86.064 1.743-.432 2.295-1.082zm11.364 9.464h2.662l-1.312-3.853h-.037zm3.01 1.095h-3.357l-.807 2.374h-1.421l3.18-8.783h1.477l3.18 8.783h-1.446zm7.765-.826c0-1.297-.672-2.15-1.697-2.15-1.007 0-1.685.87-1.685 2.15 0 1.29.678 2.153 1.685 2.153 1.025 0 1.697-.846 1.697-2.154zm1.355 0c0 1.989-1.068 3.268-2.68 3.268-.915 0-1.642-.408-2.02-1.12h-.031v3.17H33.86v-8.522h1.275v1.066h.025c.366-.688 1.148-1.132 2.044-1.132 1.63 0 2.705 1.284 2.705 3.27zm5.714 0c0-1.297-.673-2.15-1.697-2.15-1.008 0-1.685.87-1.685 2.15 0 1.29.677 2.153 1.685 2.153 1.024 0 1.697-.846 1.697-2.154zm1.355 0c0 1.989-1.069 3.268-2.68 3.268-.916 0-1.642-.408-2.02-1.12h-.031v3.17h-1.319v-8.522h1.276v1.066h.024c.367-.688 1.149-1.132 2.045-1.132 1.63 0 2.705 1.284 2.705 3.27zm4.671.754c.097.87.946 1.442 2.105 1.442 1.111 0 1.91-.572 1.91-1.357 0-.682-.481-1.09-1.623-1.37l-1.142-.274c-1.617-.39-2.367-1.143-2.367-2.368 0-1.515 1.324-2.556 3.204-2.556 1.862 0 3.138 1.041 3.18 2.556h-1.33c-.08-.876-.806-1.405-1.868-1.405s-1.789.535-1.789 1.314c0 .621.465.987 1.6 1.266l.97.238c1.807.426 2.558 1.15 2.558 2.435 0 1.643-1.313 2.672-3.4 2.672-1.954 0-3.273-1.005-3.358-2.593zm8.253-5.473v1.515h1.221v1.041h-1.221v3.53c0 .55.244.805.781.805.134 0 .349-.02.434-.03v1.034c-.146.037-.44.06-.732.06-1.3 0-1.808-.486-1.808-1.728v-3.67h-.933v-1.042h.933v-1.515zm6.677 4.719c0-1.384-.635-2.2-1.703-2.2s-1.703.823-1.703 2.2c0 1.386.635 2.196 1.703 2.196s1.703-.81 1.703-2.197zm-4.749 0c0-2.016 1.19-3.282 3.046-3.282 1.862 0 3.046 1.266 3.046 3.281 0 2.02-1.178 3.28-3.046 3.28-1.868 0-3.046-1.26-3.046-3.28zm7.179-3.204h1.258v1.09h.03c.202-.724.787-1.156 1.544-1.156.19 0 .348.025.452.049v1.23c-.104-.043-.336-.08-.592-.08-.848 0-1.373.572-1.373 1.473v3.799H69.01zm4.906 2.613h3.21c-.03-.98-.659-1.626-1.574-1.626-.91 0-1.569.657-1.636 1.626zm4.456 1.91c-.177 1.163-1.312 1.96-2.765 1.96-1.868 0-3.028-1.247-3.028-3.25 0-2.008 1.166-3.311 2.973-3.311 1.777 0 2.894 1.217 2.894 3.159v.45H73.91v.08c0 1.095.69 1.813 1.728 1.813.732 0 1.306-.346 1.483-.9zM26.745 10.8h.798c.885 0 1.395-.55 1.395-1.518 0-.954-.519-1.51-1.395-1.51h-.798zm.87-3.624c1.256 0 1.992.769 1.992 2.097 0 1.348-.73 2.124-1.991 2.124h-1.529V7.176zm5.098 2.626c0-.69-.311-1.094-.857-1.094-.548 0-.856.404-.856 1.094 0 .696.308 1.097.856 1.097.546 0 .857-.404.857-1.097zm-2.364 0c0-1.026.575-1.652 1.507-1.652.93 0 1.505.626 1.505 1.652 0 1.033-.572 1.656-1.505 1.656-.935 0-1.507-.623-1.507-1.656zm7.017 1.594h-.654l-.66-2.346h-.05l-.657 2.346h-.648l-.88-3.185h.64l.571 2.43h.048l.656-2.43h.605l.657 2.43h.05l.569-2.43h.63zm1.618-3.185h.606v.506h.048c.155-.353.472-.567.953-.567.712 0 1.105.426 1.105 1.185v2.061h-.63V9.492c0-.512-.223-.766-.689-.766-.467 0-.763.31-.763.807v1.863h-.63zm3.717-1.243h.63v4.428h-.63zm3.87 2.834c0-.69-.31-1.094-.857-1.094-.547 0-.856.404-.856 1.094 0 .696.309 1.097.856 1.097.546 0 .857-.404.857-1.097zm-2.364 0c0-1.026.575-1.652 1.507-1.652.93 0 1.506.626 1.506 1.652 0 1.033-.573 1.656-1.506 1.656-.935 0-1.507-.623-1.507-1.656zm5.729.421v-.266l-.78.05c-.44.03-.639.179-.639.46 0 .286.25.453.592.453.476 0 .827-.301.827-.697zm-2.053.272c0-.573.428-.904 1.188-.95l.865-.05V9.22c0-.337-.223-.526-.654-.526-.351 0-.595.129-.666.354h-.61c.065-.547.58-.898 1.306-.898.8 0 1.251.398 1.251 1.07v2.176h-.606v-.447h-.05c-.19.318-.54.5-.96.5-.615 0-1.064-.372-1.064-.954zm4.16-.693c0 .676.32 1.082.854 1.082.531 0 .86-.412.86-1.079 0-.663-.332-1.082-.86-1.082-.531 0-.854.41-.854 1.08zm-.651 0c0-1.006.52-1.644 1.326-1.644.437 0 .806.208.98.56h.047v-1.75h.63v4.429h-.604v-.504h-.05c-.19.348-.563.556-1.003.556-.812 0-1.326-.638-1.326-1.647zm7.955 0c0-.69-.31-1.094-.857-1.094-.547 0-.856.404-.856 1.094 0 .696.309 1.097.856 1.097.546 0 .857-.404.857-1.097zm-2.364 0c0-1.026.575-1.652 1.507-1.652.93 0 1.505.626 1.505 1.652 0 1.033-.571 1.656-1.505 1.656-.935 0-1.507-.623-1.507-1.656zm3.859-1.591h.606v.506h.048c.155-.353.472-.567.953-.567.712 0 1.105.426 1.105 1.185v2.061h-.63V9.492c0-.512-.223-.766-.689-.766-.467 0-.763.31-.763.807v1.863h-.63zm6.274-.793v.807h.692v.53h-.692v1.637c0 .334.138.48.452.48.097 0 .152-.006.24-.014v.523a2.02 2.02 0 01-.343.033c-.701 0-.98-.247-.98-.86v-1.8h-.507v-.529h.507v-.807zm1.553-.45h.625v1.755h.05c.155-.357.492-.57.973-.57.68 0 1.1.43 1.1 1.187v2.057h-.63V9.495c0-.509-.238-.767-.684-.767-.516 0-.803.326-.803.808v1.86h-.631zm4.206 2.542h1.614c-.015-.5-.32-.825-.787-.825-.466 0-.792.327-.827.825zm2.217 1.026c-.143.57-.654.922-1.384.922-.915 0-1.475-.626-1.475-1.644 0-1.018.572-1.664 1.472-1.664.89 0 1.426.605 1.426 1.606v.219h-2.256v.035c.021.558.347.913.85.913.383 0 .644-.138.76-.387z" fill="#fff"/></g></svg>