<svg width="111" height="60" viewBox="0 0 111 60" fill="none" xmlns="http://www.w3.org/2000/svg">
<path fill-rule="evenodd" clip-rule="evenodd" d="M55.5 8.57143C29.5639 8.57143 8.53846 29.6781 8.53846 55.7143C8.53846 58.0813 6.62704 60 4.26923 60C1.91142 60 0 58.0813 0 55.7143C0 24.9441 24.8482 0 55.5 0C86.1518 0 111 24.9441 111 55.7143C111 58.0813 109.089 60 106.731 60C104.373 60 102.462 58.0813 102.462 55.7143C102.462 29.6781 81.436 8.57143 55.5 8.57143ZM55.5 23.2654C37.6478 23.2654 23.1758 37.7931 23.1758 55.7143C23.1758 58.0813 21.2644 60 18.9066 60C16.5488 60 14.6374 58.0813 14.6374 55.7143C14.6374 33.0591 32.932 14.694 55.5 14.694C78.068 14.694 96.3625 33.0591 96.3625 55.7143C96.3625 58.0813 94.4512 60 92.0933 60C89.7354 60 87.8241 58.0813 87.8241 55.7143C87.8241 37.7931 73.3522 23.2654 55.5 23.2654ZM55.5 37.959C45.732 37.959 37.813 45.9086 37.813 55.7143C37.813 58.0813 35.9017 60 33.5438 60C31.1863 60 29.2747 58.0813 29.2747 55.7143C29.2747 41.1746 41.0162 29.3876 55.5 29.3876C69.9838 29.3876 81.7255 41.1746 81.7255 55.7143C81.7255 58.0813 79.8137 60 77.4562 60C75.0983 60 73.187 58.0813 73.187 55.7143C73.187 45.9086 65.268 37.959 55.5 37.959Z" fill="#FF01FF"/>
</svg>
