<svg width="96" height="88" viewBox="0 0 96 88" fill="none" xmlns="http://www.w3.org/2000/svg">
<path fill-rule="evenodd" clip-rule="evenodd" d="M64 17C64 26.3736 56.3736 34 47 34C37.6264 34 30 26.3736 30 17C30 7.62643 37.6264 0 47 0C56.3736 0 64 7.62643 64 17ZM60.3402 17C60.3402 9.64399 54.356 3.65983 47 3.65983C39.644 3.65983 33.6598 9.64399 33.6598 17C33.6598 24.356 39.644 30.3402 47 30.3402C54.356 30.3402 60.3402 24.356 60.3402 17Z" fill="black"/>
<path d="M79.0003 54C69.6266 54 62 61.6264 62 71C62 80.3736 69.6266 88 79.0003 88C88.374 88 96 80.3736 96 71C96 61.6264 88.374 54 79.0003 54Z" fill="black"/>
<path fill-rule="evenodd" clip-rule="evenodd" d="M0 71C0 61.6264 7.62645 54 17 54C26.3736 54 34 61.6264 34 71C34 80.3736 26.3736 88 17 88C7.62643 88 0 80.3736 0 71ZM23.5096 81.085C24.0682 81.085 24.5653 81.331 24.9124 81.7155C26.0592 80.8663 27.0667 79.8436 27.891 78.6777C27.7046 78.739 27.5091 78.7804 27.3021 78.7804C26.2548 78.7804 25.4058 77.9314 25.4058 76.8842C25.4058 75.8369 26.2548 74.9879 27.3021 74.9879C28.2085 74.9879 28.9641 75.625 29.1515 76.4752C29.6593 75.3529 30.0107 74.1489 30.1906 72.888C29.1826 72.8437 28.3773 72.019 28.3773 71.0001C28.3773 69.9812 29.1826 69.1565 30.1906 69.1121C30.0107 67.8512 29.6593 66.6472 29.1516 65.5248C28.9642 66.3751 28.2086 67.0123 27.3021 67.0123C26.2548 67.0123 25.4058 66.1633 25.4058 65.1161C25.4058 64.0688 26.2548 63.2198 27.3021 63.2198C27.5091 63.2198 27.7047 63.2612 27.8913 63.3226C27.0669 62.1566 26.0592 61.1337 24.9124 60.2846C24.5654 60.6691 24.0683 60.9152 23.5095 60.9152C22.4623 60.9152 21.6133 60.0662 21.6133 59.019C21.6133 58.8473 21.6434 58.6841 21.6862 58.5259C20.7062 58.1564 19.6752 57.8949 18.6018 57.7656C18.8989 58.1004 19.085 58.5361 19.085 59.019C19.085 60.0662 18.236 60.9152 17.1887 60.9152C16.1415 60.9152 15.2925 60.0662 15.2925 59.019C15.2925 58.5149 15.4926 58.0597 15.8133 57.72C14.5069 57.8359 13.2568 58.1432 12.0851 58.6097C12.1143 58.7418 12.1321 58.8781 12.1321 59.019C12.1321 60.0662 11.2831 60.9152 10.2359 60.9152C9.73268 60.9152 9.27825 60.7157 8.93879 60.3959C7.87818 61.2042 6.94261 62.1636 6.16457 63.2479C6.16944 63.2472 6.17431 63.2464 6.17918 63.2457C6.26605 63.2328 6.35296 63.2198 6.44336 63.2198C7.49063 63.2198 8.33961 64.0688 8.33961 65.1161C8.33961 66.1633 7.49063 67.0123 6.44336 67.0123C5.65699 67.0123 4.98268 66.5336 4.69535 65.8517C4.2532 66.9045 3.95507 68.0294 3.79617 69.1982C3.97487 69.1424 4.1611 69.1038 4.35819 69.1038C5.40546 69.1038 6.25445 69.9528 6.25445 71.0001C6.25445 72.0474 5.40546 72.8963 4.35819 72.8963C4.1611 72.8963 3.97487 72.8578 3.79617 72.802C3.95507 73.9707 4.2532 75.0956 4.69535 76.1484C4.98268 75.4667 5.65707 74.9879 6.44336 74.9879C7.49063 74.9879 8.33961 75.8369 8.33961 76.8842C8.33961 77.9314 7.49063 78.7804 6.44336 78.7804C6.353 78.7804 6.26623 78.7675 6.17947 78.7545L6.16481 78.7524C6.94284 79.8366 7.87835 80.796 8.93895 81.6042C9.27841 81.2844 9.73268 81.085 10.2359 81.085C11.2831 81.085 12.1321 81.934 12.1321 82.9813C12.1321 83.1221 12.1143 83.2583 12.0852 83.3903C13.2569 83.8567 14.5069 84.1642 15.8132 84.28C15.4925 83.9404 15.2925 83.4853 15.2925 82.9813C15.2925 81.934 16.1415 81.085 17.1888 81.085C18.236 81.085 19.085 81.934 19.085 82.9813C19.085 83.464 18.899 83.8997 18.6019 84.2344C19.6753 84.1052 20.7062 83.8436 21.6862 83.4741C21.6434 83.316 21.6133 83.1529 21.6133 82.9813C21.6133 81.934 22.4623 81.085 23.5096 81.085Z" fill="black"/>
<rect x="41" y="65" width="14" height="4" fill="black"/>
<rect x="41" y="73" width="14" height="4" fill="black"/>
<path d="M28.501 34.3667L31.6793 36.193L24.705 48.2117L21.5267 46.3854L28.501 34.3667Z" fill="black"/>
<path d="M32.0249 52.4174L28.8466 50.5911L35.8207 38.5727L38.999 40.399L32.0249 52.4174Z" fill="black"/>
<path d="M72.0425 46.3853L68.8642 48.2116L61.8901 36.1931L65.0684 34.3668L72.0425 46.3853Z" fill="black"/>
<path d="M54.5701 40.3984L57.7484 38.5721L64.7226 50.5908L61.5443 52.4171L54.5701 40.3984Z" fill="black"/>
<circle cx="17" cy="71" r="2" fill="black"/>
<circle cx="11" cy="71" r="2" fill="black"/>
<circle cx="24" cy="71" r="2" fill="black"/>
<circle cx="14" cy="77" r="2" fill="black"/>
<circle cx="21" cy="77" r="2" fill="black"/>
<circle cx="14" cy="65" r="2" fill="black"/>
<circle cx="21" cy="65" r="2" fill="black"/>
<circle cx="79" cy="71" r="13" fill="#FF01FF"/>
</svg>
