<svg width="37" height="53" viewBox="0 0 37 53" fill="none" xmlns="http://www.w3.org/2000/svg">
<path fill-rule="evenodd" clip-rule="evenodd" d="M18.5 0C28.6751 0 37 8.30092 37 18.4467V47.5428C36.8353 47.5428 36.1095 53 30.7756 53C27.7025 53 24.9604 47.5428 24.6373 47.5428C24.3158 47.5428 21.5721 53 18.5 53C15.4289 53 12.6837 47.5428 12.3637 47.5428C12.0391 47.5428 9.29799 53 6.22438 53C0.889975 53 0.164737 47.5428 0 47.5428V18.4467C0 8.30092 8.3249 0 18.5 0ZM26.765 13.9825C29.902 13.9825 32.4443 16.5175 32.4443 19.6454C32.4443 22.7733 29.902 25.3082 26.765 25.3082C23.6281 25.3082 21.0858 22.7733 21.0858 19.6454C21.0858 16.5175 23.6281 13.9825 26.765 13.9825ZM15.9137 19.6454C15.9137 16.5175 13.3714 13.9825 10.2345 13.9825C7.09754 13.9825 4.55525 16.5175 4.55525 19.6454C4.55525 22.7733 7.09754 25.3082 10.2345 25.3082C13.3714 25.3082 15.9137 22.7733 15.9137 19.6454Z" fill="black"/>
</svg>
