<svg height="31" viewBox="0 0 98 31" width="98" xmlns="http://www.w3.org/2000/svg"><linearGradient id="a" x1="61.063%" x2="26.451%" y1="661.423%" y2="594.483%"><stop offset="0" stop-color="#00a0ff"/><stop offset=".007" stop-color="#00a1ff"/><stop offset=".26" stop-color="#00beff"/><stop offset=".512" stop-color="#00d2ff"/><stop offset=".76" stop-color="#00dfff"/><stop offset="1" stop-color="#00e3ff"/></linearGradient><linearGradient id="b" x1="107.591%" x2="-130.456%" y1="1709.814%" y2="1709.814%"><stop offset="0" stop-color="#ffe000"/><stop offset=".409" stop-color="#ffbd00"/><stop offset=".775" stop-color="orange"/><stop offset="1" stop-color="#ff9c00"/></linearGradient><linearGradient id="c" x1="86.246%" x2="-50.137%" y1="663.699%" y2="558.901%"><stop offset="0" stop-color="#ff3a44"/><stop offset="1" stop-color="#c31162"/></linearGradient><linearGradient id="d" x1="-18.803%" x2="42.098%" y1="824.778%" y2="777.982%"><stop offset="0" stop-color="#32a071"/><stop offset=".068" stop-color="#2da771"/><stop offset=".476" stop-color="#15cf74"/><stop offset=".801" stop-color="#06e775"/><stop offset="1" stop-color="#00f076"/></linearGradient><g fill="none" transform="translate(1 1)"><rect fill="#000" height="29.043" rx="5" stroke="#979797" stroke-width=".75" width="96.379" x="-.375" y="-.375"/><g fill="#fff"><path d="M33.589 7.245c0 .592-.176 1.064-.528 1.416-.4.42-.92.628-1.561.628a2.14 2.14 0 01-1.564-.637c-.43-.424-.644-.951-.644-1.58 0-.628.215-1.154.644-1.579a2.14 2.14 0 011.564-.637c.304 0 .596.06.873.178.276.118.498.276.664.474l-.373.373c-.282-.335-.67-.503-1.164-.503a1.61 1.61 0 00-1.16.471c-.327.314-.49.722-.49 1.224 0 .501.163.91.49 1.223a1.61 1.61 0 001.16.471c.475 0 .87-.157 1.187-.473.206-.206.325-.492.356-.86H31.5v-.51h2.06c.02.111.029.218.029.32zm3.265-1.773h-1.936v1.346h1.746v.51h-1.746v1.346h1.936v.52h-2.481V4.952h2.481zm2.303 3.723h-.547V5.472h-1.186v-.521h2.92v.521h-1.187zm3.301 0V4.95h.545v4.244zm2.967 0h-.546V5.472h-1.187v-.521h2.92v.521h-1.187zm6.716-.548c-.417.428-.937.642-1.558.642s-1.14-.214-1.558-.642c-.418-.43-.626-.954-.626-1.574 0-.62.208-1.145.626-1.574.417-.429.937-.643 1.558-.643.618 0 1.136.215 1.555.646.42.43.63.954.63 1.57 0 .621-.21 1.146-.627 1.575zm-2.713-.356c.315.318.7.476 1.155.476.455 0 .84-.158 1.154-.476.315-.318.473-.725.473-1.218s-.158-.9-.473-1.218a1.559 1.559 0 00-1.154-.477c-.455 0-.84.158-1.155.477-.314.317-.472.724-.472 1.218s.158.9.472 1.218zm4.106.904V4.95h.665l2.066 3.301h.023l-.023-.818V4.951h.546v4.244h-.57l-2.16-3.462h-.024l.023.819v2.643z" stroke="#fff" stroke-width=".2"/><path d="M48.265 15.386c-1.666 0-3.024 1.265-3.024 3.008 0 1.732 1.358 3.008 3.024 3.008s3.024-1.276 3.024-3.008c0-1.743-1.358-3.008-3.024-3.008zm0 4.83c-.913 0-1.7-.751-1.7-1.822 0-1.083.787-1.823 1.7-1.823.913 0 1.7.74 1.7 1.823 0 1.071-.787 1.823-1.7 1.823zm-6.597-4.83c-1.666 0-3.024 1.265-3.024 3.008 0 1.732 1.358 3.008 3.024 3.008s3.024-1.276 3.024-3.008c0-1.743-1.358-3.008-3.024-3.008zm0 4.83c-.913 0-1.7-.751-1.7-1.822 0-1.083.787-1.823 1.7-1.823.913 0 1.7.74 1.7 1.823 0 1.071-.787 1.823-1.7 1.823zM33.82 16.31v1.276h3.058c-.091.718-.33 1.242-.695 1.606-.446.445-1.142.935-2.363.935-1.882 0-3.355-1.515-3.355-3.395 0-1.881 1.473-3.396 3.355-3.396a3.26 3.26 0 012.305.911l.902-.9c-.765-.73-1.78-1.288-3.207-1.288-2.579 0-4.747 2.097-4.747 4.673 0 2.575 2.168 4.671 4.747 4.671 1.392 0 2.442-.455 3.264-1.31.844-.843 1.107-2.028 1.107-2.986 0-.296-.023-.57-.069-.797zm32.095.99c-.25-.671-1.016-1.913-2.58-1.913-1.551 0-2.84 1.219-2.84 3.008 0 1.686 1.277 3.008 2.99 3.008 1.38 0 2.18-.843 2.51-1.333l-1.027-.684c-.343.502-.81.832-1.483.832-.674 0-1.154-.308-1.462-.911l4.029-1.664zm-4.109 1.004c-.034-1.162.902-1.755 1.575-1.755.526 0 .97.262 1.119.638zm-3.274 2.917h1.323v-8.843h-1.323zm-2.17-5.162h-.045c-.296-.353-.867-.672-1.586-.672-1.506 0-2.887 1.321-2.887 3.02 0 1.686 1.38 2.996 2.887 2.996.72 0 1.29-.319 1.586-.684h.046v.434c0 1.15-.616 1.766-1.609 1.766-.81 0-1.313-.581-1.518-1.071l-1.153.478c.331.798 1.21 1.778 2.671 1.778 1.552 0 2.865-.912 2.865-3.134v-5.401h-1.256zm-1.517 4.159c-.913 0-1.677-.763-1.677-1.812 0-1.06.764-1.834 1.677-1.834.902 0 1.609.775 1.609 1.834 0 1.049-.707 1.812-1.609 1.812zm17.271-7.84h-3.167v8.843h1.321v-3.35h1.846c1.465 0 2.905-1.06 2.905-2.746 0-1.687-1.44-2.746-2.905-2.746zm.034 4.262h-1.88v-3.03h1.88c.988 0 1.55.816 1.55 1.515 0 .685-.562 1.515-1.55 1.515zm8.169-1.27c-.957 0-1.949.422-2.359 1.354l1.174.49c.25-.49.717-.65 1.208-.65.683 0 1.378.41 1.39 1.139v.09a2.927 2.927 0 00-1.38-.34c-1.264 0-2.551.693-2.551 1.99 0 1.183 1.037 1.945 2.198 1.945.89 0 1.379-.398 1.687-.865h.045v.683h1.276v-3.39c0-1.57-1.173-2.445-2.688-2.445zm-.16 4.846c-.433 0-1.037-.215-1.037-.75 0-.683.752-.944 1.402-.944.58 0 .854.125 1.207.295-.102.82-.809 1.4-1.572 1.4zm7.496-4.652l-1.515 3.833h-.045l-1.573-3.833h-1.424l2.359 5.358-1.345 2.98h1.379l3.634-8.338zM75.75 21.22h1.322v-8.842H75.75z"/></g><path d="M7.392 5.333c-.205.217-.327.556-.327.993V21.97c0 .439.122.776.327.994l.053.051 8.776-8.763v-.206L7.445 5.28z" fill="url(#a)"/><path d="M19.146 17.173l-2.925-2.923v-.206l2.926-2.922.066.038 3.466 1.967c.99.561.99 1.48 0 2.042l-3.466 1.966z" fill="url(#b)"/><path d="M19.212 17.135l-2.992-2.988-8.828 8.815c.326.345.866.388 1.473.043z" fill="url(#c)"/><path d="M19.212 11.16L8.865 5.289c-.607-.344-1.147-.302-1.473.043l8.828 8.815z" fill="url(#d)"/><path d="M19.147 17.069L8.865 22.902c-.576.327-1.09.305-1.42.008l-.053.052.052.052h.001c.33.296.844.318 1.42-.009l10.347-5.87z" fill="#000" opacity=".2"/><path d="M7.392 22.859c-.205-.218-.327-.555-.327-.994v.104c0 .438.122.776.327.993l.053-.052zm15.287-7.794l-3.532 2.004.066.066 3.466-1.967c.494-.28.742-.65.742-1.021-.042.335-.293.663-.742.918z" fill="#000" opacity=".12"/><path d="M8.865 5.392l13.814 7.837c.449.255.7.583.742.918 0-.37-.247-.74-.742-1.02L8.865 5.288c-.99-.562-1.8-.095-1.8 1.037v.104c0-1.133.81-1.6 1.8-1.038z" fill="#fff" opacity=".25"/></g></svg>