<svg height="31" viewBox="0 0 98 31" width="98" xmlns="http://www.w3.org/2000/svg" xmlns:xlink="http://www.w3.org/1999/xlink"><defs><mask id="d" fill="#fff"><use fill="#fff" fill-rule="evenodd" xlink:href="#a"/></mask><mask id="e" fill="#fff"><use fill="#fff" fill-rule="evenodd" xlink:href="#c"/></mask><radialGradient id="b" cx="-.288%" cy="-.461%" gradientTransform="scale(.86388 1)" r="149.706%"><stop offset="0" stop-color="#fff" stop-opacity=".1"/><stop offset="1" stop-color="#fff" stop-opacity="0"/></radialGradient><circle id="c" cx="9.4" cy="9.4" r="9.4"/><path id="a" d="M22.22.12v17.44a1.6 1.6 0 01-1.6 1.6H1.78a1.6 1.6 0 01-1.6-1.6V.12zm-8.52 2h-5c-.56 0-1 .44-1 1s.44 1 1 1h5c.56 0 1-.44 1-1s-.44-1-1-1z"/></defs><g fill="none" fill-rule="evenodd"><rect fill="#000" fill-rule="nonzero" height="29.043" rx="5" stroke="#979797" stroke-width=".75" width="96.379" x=".625" y=".625"/><path d="M36.04 20.84c-.78 0-1.44-.26-1.96-.8-.52-.52-.8-1.18-.8-1.98 0-.78.26-1.44.8-1.98.52-.52 1.18-.8 1.96-.8.8 0 1.44.28 1.94.86l-.48.46c-.36-.44-.86-.68-1.48-.68-.58 0-1.06.2-1.46.58s-.6.9-.6 1.54.2 1.14.6 1.54c.4.38.88.58 1.46.58.64 0 1.18-.26 1.62-.76l.48.48c-.24.3-.54.52-.92.7-.32.16-.72.26-1.16.26zm3.4-5.42v1.68l-.02.5h.02c.1-.18.26-.32.46-.44.22-.12.44-.18.68-.18.44 0 .8.14 1.02.42.24.28.36.64.36 1.12v2.22h-.68V18.6c0-.68-.3-1-.9-1-.28 0-.52.12-.68.34-.18.22-.26.48-.26.78v2h-.68v-5.3zm4 5.3h-.68v-3.64h.66v.6h.02c.06-.2.22-.36.42-.48.22-.12.42-.2.62-.2s.38.02.52.08l-.26.64a.836.836 0 00-.36-.06c-.24 0-.46.1-.66.3-.18.2-.28.46-.28.76zm2.1-3.2c.36-.36.8-.56 1.34-.56s.98.18 1.34.56c.36.36.52.82.52 1.38s-.18 1.02-.52 1.38c-.36.36-.8.56-1.34.56s-.98-.18-1.34-.56c-.36-.36-.52-.82-.52-1.38s.18-1.02.52-1.38zm.52 2.34c.24.24.52.36.84.36s.6-.12.84-.36.36-.56.36-.96-.12-.72-.36-.96-.52-.36-.84-.36-.6.12-.84.36-.36.56-.36.96.12.72.36.96zm3.24.86v-3.64h.66v.52h.02c.1-.18.26-.32.48-.44s.42-.18.64-.18c.56 0 .94.24 1.14.7.3-.46.72-.7 1.26-.7.42 0 .76.14.96.42.22.28.32.64.32 1.12v2.22h-.68V18.6c0-.36-.06-.62-.2-.78s-.34-.22-.6-.22-.48.12-.66.34-.26.48-.26.78v2h-.68V18.6c0-.36-.06-.62-.2-.78s-.34-.22-.6-.22-.48.12-.66.34-.26.48-.26.78v2zm7.94.12c-.54 0-1-.18-1.34-.54s-.52-.82-.52-1.38c0-.52.16-.98.5-1.36s.76-.56 1.28-.56c.54 0 .96.18 1.3.52s.48.82.48 1.4v.12h-2.86c.02.36.14.66.36.86.22.22.48.32.78.32.48 0 .82-.2 1-.62l.6.26c-.12.28-.32.52-.58.7s-.6.28-1 .28zm.98-2.38c-.02-.2-.1-.4-.28-.6-.18-.18-.44-.28-.78-.28-.26 0-.46.08-.66.24s-.32.36-.38.64zm8.98-3.04l-1.42 5.3h-.7l-1.14-3.5h-.02l-1.14 3.5h-.7l-1.48-5.3h.72l1.12 4.16h.02l1.14-3.46h.64l1.14 3.46h.02l1.06-4.16zm1.76 5.42c-.54 0-1-.18-1.34-.54s-.52-.82-.52-1.38c0-.52.16-.98.5-1.36s.76-.56 1.28-.56c.54 0 .96.18 1.3.52s.48.82.48 1.4v.12H67.8c.02.36.14.66.36.86.22.22.48.32.78.32.48 0 .82-.2 1-.62l.6.26c-.12.28-.32.52-.58.7-.28.18-.6.28-1 .28zm.98-2.38c-.02-.2-.1-.4-.28-.6-.18-.18-.44-.28-.78-.28-.26 0-.46.08-.66.24s-.32.36-.38.64zm3.26 2.38c-.28 0-.52-.06-.74-.18s-.38-.26-.5-.44h-.02v.5h-.66v-5.3h.68v1.68l-.02.5h.02c.1-.18.28-.32.5-.44s.46-.18.74-.18c.46 0 .88.18 1.22.56s.52.82.52 1.38c0 .54-.18 1-.52 1.38-.34.34-.74.54-1.22.54zm-.1-.62c.32 0 .58-.12.82-.36s.34-.56.34-.96-.12-.72-.34-.96-.5-.36-.82-.36-.6.12-.82.36-.34.56-.34.96.12.72.34.96.5.36.82.36zm5.46.62c-.38 0-.76-.12-1.12-.38s-.6-.6-.72-1.06l.62-.26c.08.3.22.54.46.74s.48.3.78.3.54-.08.76-.24c.2-.16.32-.36.32-.64 0-.3-.1-.52-.32-.68-.2-.16-.54-.3-1-.44s-.82-.34-1.06-.58-.36-.54-.36-.9c0-.38.16-.72.46-1s.7-.42 1.18-.42c.44 0 .82.12 1.1.34s.46.46.54.74l-.62.26c-.04-.16-.16-.32-.32-.46-.18-.14-.4-.22-.68-.22-.26 0-.48.08-.66.22s-.28.32-.28.54c0 .2.08.36.26.5s.42.26.76.36c.26.08.48.16.66.24s.36.18.54.32.32.3.4.48c.1.2.14.42.14.68s-.06.48-.16.68-.24.36-.42.48-.36.2-.56.28c-.28.08-.48.12-.7.12zm3.86-.06c-.38 0-.66-.1-.86-.3s-.3-.48-.3-.86v-1.9h-.64v-.62h.64V16h.68v1.1h.88v.62h-.88v1.84c0 .4.16.6.48.6.12 0 .22-.02.32-.06l.24.58c-.16.06-.34.1-.56.1zm1.34-3.26c.36-.36.8-.56 1.34-.56s.98.18 1.34.56c.36.36.52.82.52 1.38s-.18 1.02-.52 1.38c-.36.36-.8.56-1.34.56s-.98-.18-1.34-.56c-.36-.36-.52-.82-.52-1.38s.18-1.02.52-1.38zm.5 2.34c.24.24.52.36.84.36s.6-.12.84-.36.36-.56.36-.96-.12-.72-.36-.96-.52-.36-.84-.36-.6.12-.84.36-.36.56-.36.96c.02.4.14.72.36.96zm3.94.86h-.68v-3.64h.66v.6h.02c.06-.2.22-.36.42-.48.22-.12.42-.2.62-.2s.38.02.52.08l-.26.64a.836.836 0 00-.36-.06c-.24 0-.46.1-.66.3s-.28.46-.28.76zm3.42.12c-.54 0-1-.18-1.34-.54s-.52-.82-.52-1.38c0-.52.16-.98.5-1.36s.76-.56 1.28-.56c.54 0 .96.18 1.3.52s.48.82.48 1.4v.12h-2.86c.02.36.14.66.36.86.22.22.48.32.78.32.48 0 .82-.2 1-.62l.6.26c-.12.28-.32.52-.58.7-.28.18-.6.28-1 .28zm.98-2.38c-.02-.2-.1-.4-.28-.6-.18-.18-.44-.28-.78-.28-.26 0-.46.08-.66.24s-.32.36-.38.64zm-58.92-5.98l1.52-4h.58l1.52 4h-.58l-.38-1.08h-1.68l-.4 1.08zm1.14-1.56h1.34l-.66-1.8h-.02zm3.4 1.56l-1.1-2.74h.56l.8 2.12h.02l.82-2.12h.54l-1.12 2.74zm2.78.1c-.3 0-.54-.08-.74-.26-.2-.16-.3-.4-.3-.66 0-.3.12-.54.34-.7.24-.16.52-.26.86-.26.3 0 .56.06.74.16v-.06c0-.2-.06-.36-.2-.48s-.3-.18-.5-.18a.91.91 0 00-.4.1c-.12.08-.2.16-.24.3l-.48-.2c.06-.16.18-.32.38-.46.18-.14.44-.2.74-.2.36 0 .64.1.88.3s.34.5.34.86v1.66h-.5v-.38h-.02c-.2.3-.5.46-.9.46zm.08-.48c.22 0 .4-.08.58-.24s.26-.34.26-.56c-.14-.12-.36-.18-.66-.18-.26 0-.44.06-.56.16s-.2.24-.2.38.06.24.18.32.24.12.4.12zm2.48-3.04c-.08.08-.16.1-.26.1s-.18-.04-.26-.1c-.08-.08-.1-.16-.1-.26s.04-.18.1-.26c.08-.08.16-.1.26-.1s.18.04.26.1c.08.08.1.16.1.26s-.04.18-.1.26zm0 3.42h-.52V9.74h.52zm1.18 0h-.52v-4h.52zm1.46.1c-.3 0-.54-.08-.74-.26-.2-.16-.3-.4-.3-.66 0-.3.12-.54.34-.7.24-.16.52-.26.86-.26.3 0 .56.06.74.16v-.06c0-.2-.06-.36-.2-.48s-.3-.18-.5-.18a.91.91 0 00-.4.1c-.12.08-.2.16-.24.3l-.48-.2c.06-.16.18-.32.38-.46.18-.14.44-.2.74-.2.36 0 .64.1.88.3s.34.5.34.86v1.66h-.5v-.38h-.02c-.2.3-.5.46-.9.46zm.1-.48c.22 0 .4-.08.58-.24s.26-.34.26-.56c-.14-.12-.36-.18-.66-.18-.26 0-.44.06-.56.16s-.2.24-.2.38.06.24.18.32.24.12.4.12zm3.36.48c-.2 0-.4-.04-.56-.14-.16-.08-.3-.2-.38-.34h-.02v.38h-.5v-4h.52v1.26l-.02.38h.02c.08-.14.2-.24.38-.34s.36-.14.56-.14c.36 0 .66.14.92.42s.38.62.38 1.04-.12.76-.38 1.04c-.26.3-.56.44-.92.44zm-.08-.48c.24 0 .44-.1.62-.28s.26-.42.26-.72-.08-.54-.26-.72-.38-.28-.62-.28-.44.08-.62.26c-.16.18-.26.42-.26.72s.08.54.26.72c.16.22.38.3.62.3zm2.34.38h-.52v-4h.52zm1.84.1c-.42 0-.76-.14-1.02-.42s-.38-.62-.38-1.04c0-.4.12-.74.38-1.04s.58-.44.96-.44c.4 0 .74.14.98.4s.36.62.36 1.06v.1h-2.16c.02.28.1.5.28.66.16.16.36.24.6.24.36 0 .62-.16.76-.48l.46.2c-.08.22-.24.4-.44.54-.22.14-.48.22-.78.22zm.74-1.8c-.02-.16-.08-.3-.22-.44s-.32-.22-.6-.22c-.2 0-.36.06-.5.18s-.24.28-.28.48zm2.82-1.72c-.08.08-.16.1-.26.1s-.18-.04-.26-.1-.1-.16-.1-.26.04-.18.1-.26c.08-.08.16-.1.26-.1s.18.04.26.1c.08.08.1.16.1.26s-.04.18-.1.26zm0 3.42h-.52V9.74h.52zm1.16-2.74v.38h.02c.08-.14.2-.24.36-.34s.34-.14.52-.14c.34 0 .6.1.78.32.18.2.26.48.26.84v1.68h-.52v-1.6c0-.5-.22-.76-.68-.76-.22 0-.38.08-.52.26s-.2.36-.2.6v1.52h-.52V9.74zm4.96 2.8c-.28 0-.5-.08-.66-.22-.16-.16-.22-.36-.22-.64v-1.44h-.48v-.48h.48v-.84h.52v.84h.68v.48h-.68v1.4c0 .3.12.44.36.44.1 0 .18-.02.24-.04l.18.44c-.12.02-.26.06-.42.06zm1.34-4.06v1.26l-.02.38h.02c.08-.14.2-.24.36-.34s.34-.14.52-.14c.34 0 .6.1.78.32.18.2.26.48.26.84v1.68h-.52v-1.6c0-.5-.22-.76-.68-.76-.22 0-.38.08-.52.26s-.2.36-.2.6v1.52h-.52v-4h.52zm3.76 4.1c-.42 0-.76-.14-1.02-.42s-.38-.62-.38-1.04c0-.4.12-.74.38-1.04s.58-.44.96-.44c.4 0 .74.14.98.4s.36.62.36 1.06v.1h-2.16c.02.28.1.5.28.66.16.16.36.24.6.24.36 0 .62-.16.76-.48l.46.2c-.08.22-.24.4-.44.54-.22.14-.48.22-.78.22zm.74-1.8c-.02-.16-.08-.3-.22-.44s-.32-.22-.6-.22c-.2 0-.36.06-.5.18s-.24.28-.28.48z" fill="#fff" fill-rule="nonzero"/><g transform="translate(6.02 5)"><use fill="#eee" fill-rule="nonzero" xlink:href="#a"/><g fill-rule="nonzero" mask="url(#d)"><path d="M.18.12h22.04v9.52H.18z" fill="#212121" fill-opacity=".05"/><path d="M.18 9.5h22.04v.12H.18z" fill="#212121" fill-opacity=".02"/><path d="M.18 9.64h22.04v.12H.18z" fill="#fff" fill-opacity=".05"/><path d="M13.7 4.12h-5c-.54 0-.96-.42-1-.94v.06c0 .56.44 1 1 1h5c.56 0 1-.44 1-1v-.06c-.02.52-.46.94-1 .94zM.18.12v.12h22.04V.12z" fill="#212121" fill-opacity=".02"/><path d="M8.7 2.12h5c.54 0 .96.42 1 .94V3c0-.56-.44-1-1-1h-5c-.56 0-1 .44-1 1v.06c.02-.52.46-.94 1-.94zm12.02 16.9H1.68c-.82 0-1.5-.68-1.5-1.5v.12c0 .82.68 1.5 1.5 1.5h19.04c.82 0 1.5-.68 1.5-1.5v-.12c0 .82-.68 1.5-1.5 1.5z" fill="#231f20" fill-opacity=".1"/><path d="M.18.12v17.54c0 .82.68 1.5 1.5 1.5h19.04c.82 0 1.5-.68 1.5-1.5V.12zm13.52 4h-5c-.56 0-1-.44-1-1s.44-1 1-1h5c.56 0 1 .44 1 1s-.44 1-1 1z" fill="url(#b)"/></g><g mask="url(#d)"><g transform="translate(1.8 8.2)"><use fill="#d8d8d8" fill-rule="evenodd" xlink:href="#c"/><g fill-rule="nonzero"><path d="M1.4-.08V11.6h4.26L9.4 5.12h9.52v-5.2zm0 0V11.6h4.26L9.4 5.12h9.52v-5.2z" fill="#db4437" mask="url(#e)"/><path d="M-.12 18.96h9.06l4.2-4.2v-3.14h-7.5l-5.76-9.9zm0 0h9.06l4.2-4.2v-3.14h-7.5l-5.76-9.9z" fill="#0f9d58" mask="url(#e)"/><path d="M9.4 5.12l3.74 6.48-4.2 7.36h9.98V5.12zm0 0l3.74 6.48-4.2 7.36h9.98V5.12z" fill="#ffcd40" mask="url(#e)"/></g><g fill="none" fill-rule="evenodd" mask="url(#e)"><g fill-rule="nonzero" transform="translate(5 5)"><circle cx="4.4" cy="4.44" fill="#f1f1f1" r="4.32"/><circle cx="4.4" cy="4.44" fill="#4285f4" r="3.46"/></g></g></g></g></g></g></svg>