<svg width="834" height="444" viewBox="0 0 834 444" fill="none" xmlns="http://www.w3.org/2000/svg">
<path fill-rule="evenodd" clip-rule="evenodd" d="M270 122V318.233L306.087 318.535V189.103L357.339 318.535L394.117 318.233L441.648 189.103V318.233H481.361V122H429.835L375.68 259.28L320.539 122H270Z" fill="#01FFFF"/>
<path fill-rule="evenodd" clip-rule="evenodd" d="M295 122V318.233L331.087 318.535V189.103L382.339 318.535L419.117 318.233L466.648 189.103V318.233H506.361V122H454.835L400.68 259.28L345.539 122H295Z" fill="black"/>
<path fill-rule="evenodd" clip-rule="evenodd" d="M281.883 122V318.233L317.971 318.535V189.103L369.222 318.535L406 318.233L453.531 189.103V318.233H493.244V122H441.718L387.564 259.28L332.422 122H281.883Z" fill="#FF01FF"/>
<g filter="url(#filter0_d)">
<path d="M801.556 274.959H706.294V273H663.099V274.959H567.444C565.735 274.959 564.096 275.637 562.887 276.843C561.679 278.049 561 279.685 561 281.39V411.569C561 415.121 563.885 418 567.444 418H801.556C805.115 418 808 415.121 808 411.569V281.39C808 279.685 807.321 278.049 806.113 276.843C804.904 275.637 803.265 274.959 801.556 274.959Z" fill="#3F3D56"/>
<rect x="571" y="286" width="228" height="130" fill="white"/>
<circle cx="685.5" cy="280.5" r="2.5" fill="#FF01FF"/>
<rect x="718" y="362" width="24" height="6" fill="#FF01FF"/>
<path opacity="0.1" d="M570 416V296L749 416H570Z" fill="black"/>
<path d="M814.34 413.863H792V412.308C792 412.226 791.966 412.148 791.907 412.09C791.847 412.032 791.765 412 791.681 412H784.021C783.937 412 783.855 412.032 783.796 412.09C783.736 412.148 783.702 412.226 783.702 412.308V413.863H778.915V412.308C778.915 412.226 778.881 412.148 778.821 412.09C778.762 412.032 778.68 412 778.596 412H770.936C770.852 412 770.77 412.032 770.71 412.09C770.651 412.148 770.617 412.226 770.617 412.308V413.863H765.83V412.308C765.83 412.226 765.796 412.148 765.736 412.09C765.676 412.032 765.595 412 765.511 412H757.851C757.766 412 757.685 412.032 757.625 412.09C757.566 412.148 757.532 412.226 757.532 412.308V413.863H752.745V412.308C752.745 412.226 752.711 412.148 752.651 412.09C752.591 412.032 752.51 412 752.426 412H744.766C744.681 412 744.6 412.032 744.54 412.09C744.48 412.148 744.447 412.226 744.447 412.308V413.863H739.66V412.308C739.66 412.226 739.626 412.148 739.566 412.09C739.506 412.032 739.425 412 739.34 412H731.681C731.596 412 731.515 412.032 731.455 412.09C731.395 412.148 731.362 412.226 731.362 412.308V413.863H726.574V412.308C726.574 412.226 726.541 412.148 726.481 412.09C726.421 412.032 726.34 412 726.255 412H718.596C718.511 412 718.43 412.032 718.37 412.09C718.31 412.148 718.277 412.226 718.277 412.308V413.863H713.489V412.308C713.489 412.226 713.456 412.148 713.396 412.09C713.336 412.032 713.255 412 713.17 412H653.17C653.086 412 653.004 412.032 652.945 412.09C652.885 412.148 652.851 412.226 652.851 412.308V413.863H648.064V412.308C648.064 412.226 648.03 412.148 647.97 412.09C647.91 412.032 647.829 412 647.745 412H640.085C640 412 639.919 412.032 639.859 412.09C639.8 412.148 639.766 412.226 639.766 412.308V413.863H634.979V412.308C634.979 412.226 634.945 412.148 634.885 412.09C634.825 412.032 634.744 412 634.66 412H627C626.915 412 626.834 412.032 626.774 412.09C626.714 412.148 626.681 412.226 626.681 412.308V413.863H621.894V412.308C621.894 412.226 621.86 412.148 621.8 412.09C621.74 412.032 621.659 412 621.574 412H613.915C613.83 412 613.749 412.032 613.689 412.09C613.629 412.148 613.596 412.226 613.596 412.308V413.863H608.809V412.308C608.809 412.226 608.775 412.148 608.715 412.09C608.655 412.032 608.574 412 608.489 412H600.83C600.745 412 600.664 412.032 600.604 412.09C600.544 412.148 600.511 412.226 600.511 412.308V413.863H595.723V412.308C595.723 412.226 595.69 412.148 595.63 412.09C595.57 412.032 595.489 412 595.404 412H587.745C587.66 412 587.579 412.032 587.519 412.09C587.459 412.148 587.426 412.226 587.426 412.308V413.863H582.638V412.308C582.638 412.226 582.605 412.148 582.545 412.09C582.485 412.032 582.404 412 582.319 412H574.66C574.575 412 574.494 412.032 574.434 412.09C574.374 412.148 574.34 412.226 574.34 412.308V413.863H559.66C557.628 413.863 555.68 414.642 554.243 416.029C552.807 417.416 552 419.297 552 421.259V424.604C552 428.688 555.429 432 559.66 432H814.34C816.372 432 818.32 431.221 819.757 429.834C821.193 428.447 822 426.565 822 424.604V421.259C822 419.297 821.193 417.416 819.757 416.029C818.32 414.642 816.372 413.863 814.34 413.863Z" fill="#3F3D56"/>
<path fill-rule="evenodd" clip-rule="evenodd" d="M625.356 372H744.644C745.393 371.999 745.999 371.374 746 370.603V319.397C745.999 318.626 745.393 318.001 744.644 318H625.356C624.607 318.001 624.001 318.626 624 319.397V370.603C624.001 371.374 624.607 371.999 625.356 372ZM625.089 319.565C625.09 319.309 625.291 319.102 625.54 319.102H744.46C744.709 319.102 744.91 319.309 744.911 319.565V370.435C744.91 370.691 744.709 370.898 744.46 370.898H625.54C625.291 370.898 625.09 370.691 625.089 370.435V319.565Z" fill="#3F3D56"/>
<path d="M656.688 344.36C657.664 344.568 658.448 345.056 659.04 345.824C659.632 346.576 659.928 347.44 659.928 348.416C659.928 349.824 659.432 350.944 658.44 351.776C657.464 352.592 656.096 353 654.336 353H646.488V336.152H654.072C655.784 336.152 657.12 336.544 658.08 337.328C659.056 338.112 659.544 339.176 659.544 340.52C659.544 341.512 659.28 342.336 658.752 342.992C658.24 343.648 657.552 344.104 656.688 344.36ZM650.592 342.968H653.28C653.952 342.968 654.464 342.824 654.816 342.536C655.184 342.232 655.368 341.792 655.368 341.216C655.368 340.64 655.184 340.2 654.816 339.896C654.464 339.592 653.952 339.44 653.28 339.44H650.592V342.968ZM653.616 349.688C654.304 349.688 654.832 349.536 655.2 349.232C655.584 348.912 655.776 348.456 655.776 347.864C655.776 347.272 655.576 346.808 655.176 346.472C654.792 346.136 654.256 345.968 653.568 345.968H650.592V349.688H653.616ZM668.094 341.84C668.574 341.104 669.174 340.528 669.894 340.112C670.614 339.68 671.414 339.464 672.294 339.464V343.808H671.166C670.142 343.808 669.374 344.032 668.862 344.48C668.35 344.912 668.094 345.68 668.094 346.784V353H663.99V339.608H668.094V341.84ZM675.121 346.28C675.121 344.904 675.377 343.696 675.889 342.656C676.417 341.616 677.129 340.816 678.025 340.256C678.921 339.696 679.921 339.416 681.025 339.416C681.969 339.416 682.793 339.608 683.497 339.992C684.217 340.376 684.769 340.88 685.153 341.504V339.608H689.257V353H685.153V351.104C684.753 351.728 684.193 352.232 683.473 352.616C682.769 353 681.945 353.192 681.001 353.192C679.913 353.192 678.921 352.912 678.025 352.352C677.129 351.776 676.417 350.968 675.889 349.928C675.377 348.872 675.121 347.656 675.121 346.28ZM685.153 346.304C685.153 345.28 684.865 344.472 684.289 343.88C683.729 343.288 683.041 342.992 682.225 342.992C681.409 342.992 680.713 343.288 680.137 343.88C679.577 344.456 679.297 345.256 679.297 346.28C679.297 347.304 679.577 348.12 680.137 348.728C680.713 349.32 681.409 349.616 682.225 349.616C683.041 349.616 683.729 349.32 684.289 348.728C684.865 348.136 685.153 347.328 685.153 346.304ZM702.067 339.464C703.635 339.464 704.883 339.976 705.811 341C706.755 342.008 707.227 343.4 707.227 345.176V353H703.147V345.728C703.147 344.832 702.915 344.136 702.451 343.64C701.987 343.144 701.363 342.896 700.579 342.896C699.795 342.896 699.171 343.144 698.707 343.64C698.243 344.136 698.011 344.832 698.011 345.728V353H693.907V339.608H698.011V341.384C698.427 340.792 698.987 340.328 699.691 339.992C700.395 339.64 701.187 339.464 702.067 339.464ZM710.944 346.28C710.944 344.904 711.2 343.696 711.712 342.656C712.24 341.616 712.952 340.816 713.848 340.256C714.744 339.696 715.744 339.416 716.848 339.416C717.728 339.416 718.528 339.6 719.248 339.968C719.984 340.336 720.56 340.832 720.976 341.456V335.24H725.08V353H720.976V351.08C720.592 351.72 720.04 352.232 719.32 352.616C718.616 353 717.792 353.192 716.848 353.192C715.744 353.192 714.744 352.912 713.848 352.352C712.952 351.776 712.24 350.968 711.712 349.928C711.2 348.872 710.944 347.656 710.944 346.28ZM720.976 346.304C720.976 345.28 720.688 344.472 720.112 343.88C719.552 343.288 718.864 342.992 718.048 342.992C717.232 342.992 716.536 343.288 715.96 343.88C715.4 344.456 715.12 345.256 715.12 346.28C715.12 347.304 715.4 348.12 715.96 348.728C716.536 349.32 717.232 349.616 718.048 349.616C718.864 349.616 719.552 349.32 720.112 348.728C720.688 348.136 720.976 347.328 720.976 346.304Z" fill="#FF01FF"/>
</g>
<g filter="url(#filter1_d)">
<path d="M141 64.478H139.876V33.7719C139.876 29.0585 137.998 24.5381 134.656 21.2052C131.314 17.8724 126.782 16 122.055 16H56.8209C52.0945 16 47.5617 17.8724 44.2196 21.2052C40.8775 24.5381 39 29.0585 39 33.7719V202.228C39 206.942 40.8775 211.462 44.2196 214.795C47.5617 218.128 52.0945 220 56.8209 220H122.055C126.782 220 131.314 218.128 134.656 214.795C137.998 211.462 139.876 206.942 139.876 202.228V86.3352H141V64.478Z" fill="#3F3D56"/>
<path d="M136 33.2846V201.709C136 209.049 130.051 215 122.713 215H57.2808C53.7576 215 50.3789 213.599 47.8882 211.106C45.3974 208.614 43.9988 205.234 44 201.709V33.2846C44.0001 25.9478 49.9461 20.0001 57.2808 20H65.2192C64.4282 21.9465 64.6565 24.1589 65.8284 25.9027C67.0002 27.6465 68.9622 28.6932 71.0627 28.6954H108.37C110.473 28.6994 112.439 27.6539 113.612 25.9082C114.785 24.1624 115.011 21.9464 114.213 20H122.713C130.049 19.9996 135.997 25.9466 136 33.2846Z" fill="white"/>
<path opacity="0.1" d="M136 185.607V202.719C136 210.054 130.051 216 122.713 216H57.2808C53.7576 216 50.3789 214.6 47.8882 212.109C45.3974 209.619 43.9988 206.241 44 202.719V124L136 185.607Z" fill="black"/>
</g>
<g clip-path="url(#clip0)" filter="url(#filter2_d)">
<path d="M176.044 145H3.95556C2.87602 144.999 2.00118 144.374 2 143.603V92.3966C2.00118 91.6256 2.87602 91.0008 3.95556 91H176.044C177.124 91.0008 177.999 91.6256 178 92.3966V143.603C177.999 144.374 177.124 144.999 176.044 145Z" fill="white" stroke="black" stroke-width="2"/>
<path d="M18.792 118.552C18.792 116.888 19.152 115.408 19.872 114.112C20.592 112.8 21.592 111.784 22.872 111.064C24.168 110.328 25.632 109.96 27.264 109.96C29.264 109.96 30.976 110.488 32.4 111.544C33.824 112.6 34.776 114.04 35.256 115.864H30.744C30.408 115.16 29.928 114.624 29.304 114.256C28.696 113.888 28 113.704 27.216 113.704C25.952 113.704 24.928 114.144 24.144 115.024C23.36 115.904 22.968 117.08 22.968 118.552C22.968 120.024 23.36 121.2 24.144 122.08C24.928 122.96 25.952 123.4 27.216 123.4C28 123.4 28.696 123.216 29.304 122.848C29.928 122.48 30.408 121.944 30.744 121.24H35.256C34.776 123.064 33.824 124.504 32.4 125.56C30.976 126.6 29.264 127.12 27.264 127.12C25.632 127.12 24.168 126.76 22.872 126.04C21.592 125.304 20.592 124.288 19.872 122.992C19.152 121.696 18.792 120.216 18.792 118.552ZM45.5466 127.192C44.2346 127.192 43.0506 126.912 41.9946 126.352C40.9546 125.792 40.1306 124.992 39.5226 123.952C38.9306 122.912 38.6346 121.696 38.6346 120.304C38.6346 118.928 38.9386 117.72 39.5466 116.68C40.1546 115.624 40.9866 114.816 42.0426 114.256C43.0986 113.696 44.2826 113.416 45.5946 113.416C46.9066 113.416 48.0906 113.696 49.1466 114.256C50.2026 114.816 51.0346 115.624 51.6426 116.68C52.2506 117.72 52.5546 118.928 52.5546 120.304C52.5546 121.68 52.2426 122.896 51.6186 123.952C51.0106 124.992 50.1706 125.792 49.0986 126.352C48.0426 126.912 46.8586 127.192 45.5466 127.192ZM45.5466 123.64C46.3306 123.64 46.9946 123.352 47.5386 122.776C48.0986 122.2 48.3786 121.376 48.3786 120.304C48.3786 119.232 48.1066 118.408 47.5626 117.832C47.0346 117.256 46.3786 116.968 45.5946 116.968C44.7946 116.968 44.1306 117.256 43.6026 117.832C43.0746 118.392 42.8106 119.216 42.8106 120.304C42.8106 121.376 43.0666 122.2 43.5786 122.776C44.1066 123.352 44.7626 123.64 45.5466 123.64ZM64.5733 113.464C66.1413 113.464 67.3893 113.976 68.3173 115C69.2613 116.008 69.7333 117.4 69.7333 119.176V127H65.6533V119.728C65.6533 118.832 65.4213 118.136 64.9573 117.64C64.4933 117.144 63.8693 116.896 63.0853 116.896C62.3013 116.896 61.6773 117.144 61.2133 117.64C60.7493 118.136 60.5173 118.832 60.5173 119.728V127H56.4133V113.608H60.5173V115.384C60.9333 114.792 61.4933 114.328 62.1973 113.992C62.9013 113.64 63.6933 113.464 64.5733 113.464ZM79.7145 127.192C78.5465 127.192 77.5065 126.992 76.5945 126.592C75.6825 126.192 74.9625 125.648 74.4345 124.96C73.9065 124.256 73.6105 123.472 73.5465 122.608H77.6025C77.6505 123.072 77.8665 123.448 78.2505 123.736C78.6345 124.024 79.1065 124.168 79.6665 124.168C80.1785 124.168 80.5705 124.072 80.8425 123.88C81.1305 123.672 81.2745 123.408 81.2745 123.088C81.2745 122.704 81.0745 122.424 80.6745 122.248C80.2745 122.056 79.6265 121.848 78.7305 121.624C77.7705 121.4 76.9705 121.168 76.3305 120.928C75.6905 120.672 75.1385 120.28 74.6745 119.752C74.2105 119.208 73.9785 118.48 73.9785 117.568C73.9785 116.8 74.1865 116.104 74.6025 115.48C75.0345 114.84 75.6585 114.336 76.4745 113.968C77.3065 113.6 78.2905 113.416 79.4265 113.416C81.1065 113.416 82.4265 113.832 83.3865 114.664C84.3625 115.496 84.9225 116.6 85.0665 117.976H81.2745C81.2105 117.512 81.0025 117.144 80.6505 116.872C80.3145 116.6 79.8665 116.464 79.3065 116.464C78.8265 116.464 78.4585 116.56 78.2025 116.752C77.9465 116.928 77.8185 117.176 77.8185 117.496C77.8185 117.88 78.0185 118.168 78.4185 118.36C78.8345 118.552 79.4745 118.744 80.3385 118.936C81.3305 119.192 82.1385 119.448 82.7625 119.704C83.3865 119.944 83.9305 120.344 84.3945 120.904C84.8745 121.448 85.1225 122.184 85.1385 123.112C85.1385 123.896 84.9145 124.6 84.4665 125.224C84.0345 125.832 83.4025 126.312 82.5705 126.664C81.7545 127.016 80.8025 127.192 79.7145 127.192ZM102.555 113.608V127H98.4507V125.176C98.0347 125.768 97.4667 126.248 96.7467 126.616C96.0427 126.968 95.2587 127.144 94.3947 127.144C93.3707 127.144 92.4667 126.92 91.6827 126.472C90.8987 126.008 90.2907 125.344 89.8587 124.48C89.4267 123.616 89.2107 122.6 89.2107 121.432V113.608H93.2907V120.88C93.2907 121.776 93.5227 122.472 93.9867 122.968C94.4507 123.464 95.0747 123.712 95.8587 123.712C96.6587 123.712 97.2907 123.464 97.7547 122.968C98.2187 122.472 98.4507 121.776 98.4507 120.88V113.608H102.555ZM124.272 113.464C125.936 113.464 127.256 113.968 128.232 114.976C129.224 115.984 129.72 117.384 129.72 119.176V127H125.64V119.728C125.64 118.864 125.408 118.2 124.944 117.736C124.496 117.256 123.872 117.016 123.072 117.016C122.272 117.016 121.64 117.256 121.176 117.736C120.728 118.2 120.504 118.864 120.504 119.728V127H116.424V119.728C116.424 118.864 116.192 118.2 115.728 117.736C115.28 117.256 114.656 117.016 113.856 117.016C113.056 117.016 112.424 117.256 111.96 117.736C111.512 118.2 111.288 118.864 111.288 119.728V127H107.184V113.608H111.288V115.288C111.704 114.728 112.248 114.288 112.92 113.968C113.592 113.632 114.352 113.464 115.2 113.464C116.208 113.464 117.104 113.68 117.888 114.112C118.688 114.544 119.312 115.16 119.76 115.96C120.224 115.224 120.856 114.624 121.656 114.16C122.456 113.696 123.328 113.464 124.272 113.464ZM146.896 120.088C146.896 120.472 146.872 120.872 146.824 121.288H137.536C137.6 122.12 137.864 122.76 138.328 123.208C138.808 123.64 139.392 123.856 140.08 123.856C141.104 123.856 141.816 123.424 142.216 122.56H146.584C146.36 123.44 145.952 124.232 145.36 124.936C144.784 125.64 144.056 126.192 143.176 126.592C142.296 126.992 141.312 127.192 140.224 127.192C138.912 127.192 137.744 126.912 136.72 126.352C135.696 125.792 134.896 124.992 134.32 123.952C133.744 122.912 133.456 121.696 133.456 120.304C133.456 118.912 133.736 117.696 134.296 116.656C134.872 115.616 135.672 114.816 136.696 114.256C137.72 113.696 138.896 113.416 140.224 113.416C141.52 113.416 142.672 113.688 143.68 114.232C144.688 114.776 145.472 115.552 146.032 116.56C146.608 117.568 146.896 118.744 146.896 120.088ZM142.696 119.008C142.696 118.304 142.456 117.744 141.976 117.328C141.496 116.912 140.896 116.704 140.176 116.704C139.488 116.704 138.904 116.904 138.424 117.304C137.96 117.704 137.672 118.272 137.56 119.008H142.696ZM154.846 115.84C155.326 115.104 155.926 114.528 156.646 114.112C157.366 113.68 158.166 113.464 159.046 113.464V117.808H157.918C156.894 117.808 156.126 118.032 155.614 118.48C155.102 118.912 154.846 119.68 154.846 120.784V127H150.742V113.608H154.846V115.84Z" fill="#FF01FF"/>
</g>
<rect x="8" y="98" width="24" height="6" fill="#FF01FF"/>
<path d="M687 228.091V2H389V61.1233" stroke="#FF01FF" stroke-width="3" stroke-linejoin="round"/>
<path d="M388 369V432.123H90L91 259.355" stroke="#FF01FF" stroke-width="3" stroke-linejoin="round"/>
<defs>
<filter id="filter0_d" x="548" y="269" width="286" height="175" filterUnits="userSpaceOnUse" color-interpolation-filters="sRGB">
<feFlood flood-opacity="0" result="BackgroundImageFix"/>
<feColorMatrix in="SourceAlpha" type="matrix" values="0 0 0 0 0 0 0 0 0 0 0 0 0 0 0 0 0 0 127 0"/>
<feOffset dx="4" dy="4"/>
<feGaussianBlur stdDeviation="4"/>
<feColorMatrix type="matrix" values="0 0 0 0 0.729412 0 0 0 0 0.729412 0 0 0 0 0.729412 0 0 0 1 0"/>
<feBlend mode="normal" in2="BackgroundImageFix" result="effect1_dropShadow"/>
<feBlend mode="normal" in="SourceGraphic" in2="effect1_dropShadow" result="shape"/>
</filter>
<filter id="filter1_d" x="35" y="10" width="118" height="220" filterUnits="userSpaceOnUse" color-interpolation-filters="sRGB">
<feFlood flood-opacity="0" result="BackgroundImageFix"/>
<feColorMatrix in="SourceAlpha" type="matrix" values="0 0 0 0 0 0 0 0 0 0 0 0 0 0 0 0 0 0 127 0"/>
<feOffset dx="4" dy="2"/>
<feGaussianBlur stdDeviation="4"/>
<feColorMatrix type="matrix" values="0 0 0 0 0.729412 0 0 0 0 0.729412 0 0 0 0 0.729412 0 0 0 1 0"/>
<feBlend mode="normal" in2="BackgroundImageFix" result="effect1_dropShadow"/>
<feBlend mode="normal" in="SourceGraphic" in2="effect1_dropShadow" result="shape"/>
</filter>
<filter id="filter2_d" x="0" y="89" width="184" height="62" filterUnits="userSpaceOnUse" color-interpolation-filters="sRGB">
<feFlood flood-opacity="0" result="BackgroundImageFix"/>
<feColorMatrix in="SourceAlpha" type="matrix" values="0 0 0 0 0 0 0 0 0 0 0 0 0 0 0 0 0 0 127 0"/>
<feOffset dx="2" dy="2"/>
<feGaussianBlur stdDeviation="2"/>
<feColorMatrix type="matrix" values="0 0 0 0 0.729412 0 0 0 0 0.729412 0 0 0 0 0.729412 0 0 0 1 0"/>
<feBlend mode="normal" in2="BackgroundImageFix" result="effect1_dropShadow"/>
<feBlend mode="normal" in="SourceGraphic" in2="effect1_dropShadow" result="shape"/>
</filter>
<clipPath id="clip0">
<rect width="176" height="54" fill="white" transform="translate(2 91)"/>
</clipPath>
</defs>
</svg>
