<svg width="237" height="197" viewBox="0 0 237 197" fill="none" xmlns="http://www.w3.org/2000/svg">
<path fill-rule="evenodd" clip-rule="evenodd" d="M0 0V196.233L36.0874 196.535V67.1034L87.3386 196.535L124.117 196.233L171.648 67.1034V196.233H211.361V0H159.835L105.68 137.28L50.5389 0H0Z" fill="#01FFFF"/>
<path fill-rule="evenodd" clip-rule="evenodd" d="M25 0V196.233L61.0874 196.535V67.1034L112.339 196.535L149.117 196.233L196.648 67.1034V196.233H236.361V0H184.835L130.68 137.28L75.5389 0H25Z" fill="black"/>
<path fill-rule="evenodd" clip-rule="evenodd" d="M11.8833 0V196.233L47.9707 196.535V67.1034L99.2219 196.535L136 196.233L183.531 67.1034V196.233H223.244V0H171.718L117.564 137.28L62.4222 0H11.8833Z" fill="#FF01FF"/>
</svg>
