<svg width="122" height="121" viewBox="0 0 122 121" fill="none" xmlns="http://www.w3.org/2000/svg">
<rect width="122" height="121" fill="#F2F2F2"/>
<rect width="1920" height="3575" transform="translate(-1404 -2647)" fill="white"/>
<rect x="-1404" y="-2067" width="1920" height="2808" fill="white"/>
<path fill-rule="evenodd" clip-rule="evenodd" d="M60.5 121C27.0868 121 0 93.9132 0 60.5C0 27.0868 27.0868 0 60.5 0C85.5474 0 107.04 15.2211 116.232 36.9182L116.646 36.747L116.84 37.2011L116.425 37.3788C116.84 37.2011 116.84 37.2013 116.84 37.2015L116.841 37.2022L116.842 37.2047L116.846 37.2137L116.86 37.2473C116.872 37.2767 116.89 37.3199 116.913 37.3766C116.959 37.49 117.026 37.6573 117.11 37.8758C117.278 38.3126 117.514 38.954 117.79 39.7772C118.343 41.4235 119.055 43.7979 119.699 46.7188C120.985 52.558 121.999 60.5949 120.897 69.3685L120.895 69.3803L120.893 69.392C119.456 77.6347 116.619 84.4889 114.142 89.2819C112.903 91.6791 111.754 93.5627 110.912 94.849C110.492 95.4921 110.148 95.9861 109.908 96.3204C109.789 96.4876 109.695 96.6148 109.631 96.7009C109.613 96.7244 109.598 96.7449 109.585 96.7622C109.574 96.7766 109.565 96.7888 109.557 96.7989L109.538 96.8244L109.532 96.8312L109.531 96.8331L109.53 96.8337C109.53 96.8339 109.53 96.8341 109.135 96.5279L109.53 96.8341L109.23 97.2209L108.837 96.9296L108.818 96.9152C97.7748 111.544 80.2416 121 60.5 121ZM108.818 96.9152L60.2024 60.9018L59.4921 60.3756L60.309 60.0379L116.19 36.9357L116.232 36.9182C116.297 37.0714 116.361 37.2249 116.425 37.3788C119.373 44.5022 121 52.3111 121 60.5C121 74.1716 116.465 86.784 108.818 96.9152ZM116.176 38.2344C116.151 38.1688 116.128 38.1082 116.106 38.0524L61.5079 60.6244L109.031 95.8283L109.095 95.7381C109.327 95.4145 109.663 94.9322 110.076 94.3015C110.901 93.0401 112.033 91.186 113.254 88.8229C115.695 84.0976 118.49 77.3451 119.906 69.232C120.988 60.6086 119.992 52.6959 118.722 46.9339C118.087 44.0529 117.385 41.713 116.842 40.0954C116.571 39.2867 116.339 38.6588 116.176 38.2344Z" fill="#FA00FA"/>
<path fill-rule="evenodd" clip-rule="evenodd" d="M128 37C128 37 123.714 35.6515 120.051 36.3474C116.388 37.0433 108.619 40.6819 108.619 40.6819L109 100H128V37Z" fill="white"/>
</svg>
