<svg width="122" height="121" viewBox="0 0 122 121" fill="none" xmlns="http://www.w3.org/2000/svg">
<rect width="122" height="121" fill="#F2F2F2"/>
<rect width="1920" height="3575" transform="translate(-1435 -844)" fill="white"/>
<rect x="-1435" y="-264" width="1920" height="2808" fill="white"/>
<path fill-rule="evenodd" clip-rule="evenodd" d="M61.5 121C94.9132 121 122 93.9132 122 60.5C122 27.0868 94.9132 0 61.5 0C36.4526 0 14.9603 15.2211 5.76815 36.9182L5.35403 36.747L5.15975 37.2011L5.57524 37.3788C5.15974 37.2011 5.15967 37.2013 5.15957 37.2015L5.15925 37.2022L5.15819 37.2047L5.15439 37.2137L5.14028 37.2473C5.12802 37.2767 5.11014 37.3199 5.08709 37.3766C5.04099 37.49 4.9742 37.6573 4.89029 37.8758C4.72246 38.3126 4.48612 38.954 4.20984 39.7772C3.65734 41.4235 2.94478 43.7979 2.30124 46.7188C1.01471 52.558 0.000940323 60.5949 1.10324 69.3685L1.10473 69.3803L1.10678 69.392C2.54407 77.6347 5.38112 84.4889 7.85789 89.2819C9.09661 91.6791 10.2462 93.5627 11.0876 94.849C11.5084 95.4921 11.8521 95.9861 12.0916 96.3204C12.2113 96.4876 12.305 96.6148 12.3692 96.7009C12.3868 96.7244 12.4021 96.7449 12.4152 96.7622C12.426 96.7766 12.4353 96.7888 12.4429 96.7989L12.4624 96.8244L12.4677 96.8312L12.4692 96.8331L12.4696 96.8337C12.4698 96.8339 12.4699 96.8341 12.8652 96.5279L12.4699 96.8341L12.7696 97.2209L13.1628 96.9296L13.1823 96.9152C24.2252 111.544 41.7584 121 61.5 121ZM13.1823 96.9152L61.7976 60.9018L62.5079 60.3756L61.691 60.0379L5.81047 36.9357L5.76815 36.9182C5.70323 37.0714 5.63893 37.2249 5.57524 37.3788C2.62695 44.5022 1 52.3111 1 60.5C1 74.1716 5.53481 86.784 13.1823 96.9152ZM5.82378 38.2344C5.84895 38.1688 5.8725 38.1082 5.8943 38.0524L60.4921 60.6244L12.9695 95.8283L12.9046 95.7381C12.6728 95.4145 12.337 94.9322 11.9245 94.3015C11.0993 93.0401 9.9674 91.186 8.74629 88.8229C6.30455 84.0976 3.51022 77.3451 2.09396 69.232C1.01235 60.6086 2.0083 52.6959 3.27782 46.9339C3.91259 44.0529 4.61498 41.713 5.15787 40.0954C5.42928 39.2867 5.66073 38.6588 5.82378 38.2344Z" fill="#FA00FA"/>
<path fill-rule="evenodd" clip-rule="evenodd" d="M-6.38086 37.0001C-6.38086 37.0001 -2.09468 35.6516 1.56817 36.3475C5.23102 37.0433 12.9999 40.682 12.9999 40.682L12.6191 100H-6.38086V37.0001Z" fill="white"/>
</svg>
