<svg width="94" height="113" viewBox="0 0 94 113" fill="none" xmlns="http://www.w3.org/2000/svg">
<path fill-rule="evenodd" clip-rule="evenodd" d="M16.8904 33.4108L0.440417 55.7151C-0.171993 56.5586 -0.123936 57.8187 0.550867 58.6132L45.2009 111.439C46.0798 112.484 47.9203 112.484 48.7992 111.439L93.4492 58.6132C94.124 57.8187 94.1721 56.5586 93.5596 55.7151L77.1096 33.4108C76.671 32.817 75.9389 32.4512 75.2003 32.457H18.8003C18.0094 32.41 17.2937 32.8626 16.8904 33.4108ZM22.2146 37.1526H41.5654L27.7592 51.6798L22.2146 37.1526ZM71.785 37.1526H52.4342L66.2404 51.6798L71.785 37.1526ZM46.9998 38.2164L62.7154 54.7613H31.2842L46.9998 38.2164ZM23.9038 54.7613L18.1389 39.6838L7.01313 54.7613H23.9038ZM75.8607 39.6838L86.9865 54.7613H70.1326L75.8607 39.6838ZM25.7029 59.457H7.45376L40.6842 98.8197L25.7029 59.457ZM30.7333 59.457H63.3029L46.9998 102.121L30.7333 59.457ZM86.5458 59.457H68.2967L53.3154 98.8197L86.5458 59.457Z" fill="black"/>
<path d="M84 6L72 20" stroke="#FF01FF" stroke-width="5" stroke-linecap="round"/>
<path d="M50.4326 0L50.5674 18" stroke="#FF01FF" stroke-width="5" stroke-linecap="round"/>
<path d="M18 5L28 20" stroke="#FF01FF" stroke-width="5" stroke-linecap="round"/>
</svg>
