<svg width="87" height="87" viewBox="0 0 87 87" fill="none" xmlns="http://www.w3.org/2000/svg">
<rect width="87" height="87" fill="#F2F2F2"/>
<g clip-path="url(#clip0)">
<rect width="1920" height="1978" transform="translate(-1388 -939)" fill="white"/>
<rect x="-1388" y="-125" width="1920" height="485" fill="#F8F8F8"/>
<g clip-path="url(#clip1)">
<ellipse cx="72.5" cy="15.5" rx="13.5" ry="12.5" fill="#FF01FF"/>
<ellipse cx="72.5" cy="69.5" rx="13.5" ry="12.5" fill="#FF01FF"/>
<ellipse cx="17.5" cy="43.5" rx="13.5" ry="12.5" fill="#FF01FF"/>
<path fill-rule="evenodd" clip-rule="evenodd" d="M55.9301 15.5349C55.9301 6.99263 62.9228 0 71.4651 0C80.0074 0 87 6.99263 87 15.5349C87 24.0773 80.0074 31.0699 71.4651 31.0699C66.5278 31.0699 62.1207 28.7263 59.2687 25.1077L30.5207 39.4817C30.8687 40.7677 31.0699 42.108 31.0699 43.5C31.0699 44.892 30.8687 46.2351 30.5207 47.521L59.266 61.8951C62.118 58.2737 66.5251 55.9301 71.4651 55.9301C80.0074 55.9301 87 62.9228 87 71.4651C87 80.0074 80.0074 87 71.4651 87C62.9228 87 55.9301 80.0074 55.9301 71.4651C55.9301 70.0731 56.134 68.7327 56.4793 67.4467L27.7313 53.0727C24.8793 56.6914 20.4695 59.0349 15.5349 59.0349C6.99263 59.0349 0 52.0423 0 43.5C0 34.9577 6.99263 27.9651 15.5349 27.9651C20.4749 27.9651 24.882 30.3086 27.734 33.93L56.4793 19.556C56.1313 18.27 55.9301 16.9269 55.9301 15.5349ZM80.7877 15.5377C80.7877 10.353 76.6497 6.21506 71.4651 6.21506C66.2804 6.21506 62.1425 10.353 62.1425 15.5377C62.1425 20.7223 66.2804 24.8603 71.4651 24.8603C76.6497 24.8603 80.7877 20.7223 80.7877 15.5377ZM15.5349 34.1774C20.7196 34.1774 24.8575 38.3153 24.8575 43.5C24.8575 48.6847 20.7196 52.8226 15.5349 52.8226C10.3503 52.8226 6.21234 48.6847 6.21234 43.5C6.21234 38.3153 10.3503 34.1774 15.5349 34.1774ZM80.7877 71.4651C80.7877 66.2804 76.6497 62.1425 71.4651 62.1425C66.2804 62.1425 62.1425 66.2804 62.1425 71.4651C62.1425 76.6497 66.2804 80.7877 71.4651 80.7877C76.6497 80.7877 80.7877 76.6497 80.7877 71.4651Z" fill="black"/>
</g>
</g>
<defs>
<clipPath id="clip0">
<rect width="1920" height="1978" fill="white" transform="translate(-1388 -939)"/>
</clipPath>
<clipPath id="clip1">
<rect width="380" height="277" fill="white" transform="translate(-147)"/>
</clipPath>
</defs>
</svg>
