<svg width="84" height="84" viewBox="0 0 84 84" fill="none" xmlns="http://www.w3.org/2000/svg">
<path fill-rule="evenodd" clip-rule="evenodd" d="M4.61175 50.8874L1.00879 51.7506C0.897733 51.2764 0.795002 50.7993 0.704304 50.34V50.3391C0.70268 50.3341 0.701768 50.3285 0.700944 50.3234L0.700602 50.3213L0.699676 50.3203L0.6969 50.3044C0.6969 50.3035 0.695974 50.3025 0.6969 50.3006C0.695974 50.296 0.695049 50.2913 0.695049 50.2875L0.693534 50.2851C0.692857 50.2842 0.692272 50.2834 0.692272 50.2828L0.691617 50.2789C0.691182 50.2759 0.690794 50.2733 0.689496 50.2707C0.690421 50.2678 0.690421 50.266 0.689496 50.2632C0.689496 50.2594 0.68857 50.2566 0.687645 50.2528C0.687645 50.25 0.687645 50.2491 0.686719 50.2463L0.683943 50.235C0.683943 50.2336 0.68348 50.2327 0.683017 50.2318C0.682554 50.2308 0.682092 50.2299 0.682092 50.2285C0.682092 50.2254 0.681457 50.2229 0.680713 50.22L0.680241 50.2182C0.679315 50.2163 0.679315 50.2125 0.679315 50.2107L0.677527 50.2037L0.676539 50.2004C0.676539 50.1994 0.677464 50.1957 0.676539 50.1938C0.67524 50.1912 0.674852 50.1885 0.674417 50.1856L0.673762 50.1816L0.673464 50.1806L0.673074 50.1797L0.672364 50.178C0.672103 50.1773 0.671911 50.1766 0.671911 50.176C0.671911 50.1722 0.670986 50.1685 0.67006 50.1647C0.669135 50.1619 0.669135 50.161 0.669135 50.1582C0.669135 50.1562 0.668603 50.1544 0.66811 50.1528L0.667546 50.1508L0.667284 50.1488C0.665433 50.146 0.665433 50.1432 0.665433 50.1404C0.663582 50.1376 0.663582 50.1347 0.663582 50.1319C0.662599 50.1289 0.662138 50.1254 0.661644 50.1217C0.661209 50.1183 0.660748 50.1148 0.65988 50.1113L0.659771 50.1094C0.659657 50.1085 0.659426 50.1076 0.658954 50.1066C0.658491 50.1038 0.657797 50.1015 0.657103 50.0991C0.656409 50.0968 0.655715 50.0944 0.655252 50.0916V50.0898C0.654327 50.086 0.653401 50.0813 0.653401 50.0776C0.652944 50.0771 0.652712 50.0764 0.652483 50.0756L0.652391 50.0753C0.652185 50.0745 0.651957 50.0737 0.65155 50.0729C0.65155 50.0682 0.65155 50.0654 0.650625 50.0616L0.649898 50.0596C0.64927 50.0578 0.648774 50.0564 0.648774 50.0551L0.647906 50.0495C0.647654 50.0476 0.647424 50.0459 0.646923 50.0438C0.646923 50.042 0.646923 50.0401 0.645997 50.0373C0.645997 50.0335 0.645072 50.0298 0.644146 50.026C0.644146 50.0251 0.643915 50.0241 0.643683 50.0232L0.643336 50.0216L0.643221 50.0204C0.642295 50.0166 0.64137 50.0129 0.639519 50.0082L0.638593 50.0059L0.637668 50.0035C0.637668 50.0007 0.636742 49.9932 0.635817 49.9904C0.634891 49.9895 0.634891 49.9876 0.634891 49.9867C0.634891 49.9838 0.633966 49.9763 0.632115 49.9735C0.63304 49.9717 0.63304 49.9707 0.63304 49.9688C0.631189 49.9642 0.630264 49.9604 0.629338 49.9557C0.630264 49.9548 0.630264 49.9538 0.630264 49.9529L0.629133 49.948C0.62831 49.9447 0.627487 49.9414 0.627487 49.9389C0.627487 49.9379 0.627487 49.937 0.626562 49.936L0.625719 49.9308C0.625147 49.9274 0.624711 49.9249 0.624711 49.921C0.623785 49.921 0.62286 49.9201 0.62286 49.9192L0.621936 49.9143L0.621394 49.9114L0.620083 49.9051C0.619158 49.9042 0.619158 49.9032 0.619158 49.9023L0.61582 49.8832C0.609491 49.8469 0.602962 49.8095 0.595095 49.772V49.7701C0.594613 49.7677 0.594382 49.765 0.594141 49.7622C0.593918 49.7596 0.593687 49.7569 0.593244 49.7542C0.592318 49.7486 0.591393 49.743 0.589542 49.7373C0.588616 49.7261 0.586765 49.7158 0.583989 49.7045V49.7036C0.506247 49.2837 0.435909 48.8628 0.37205 48.4383L0.371124 48.4373C0.371124 48.4324 0.370419 48.4282 0.369624 48.4235L0.369273 48.4214V48.4204L0.366497 48.4036V48.4026C0.361053 48.3675 0.355874 48.3322 0.350677 48.2967C0.346154 48.2659 0.341618 48.2349 0.336881 48.2039V48.2021C0.336418 48.1992 0.336187 48.1969 0.335956 48.1946C0.335724 48.1922 0.335493 48.1899 0.33503 48.1871V48.1842C0.333179 48.1796 0.332254 48.1749 0.332254 48.1702C0.332254 48.1683 0.331328 48.1674 0.330403 48.1664L0.330178 48.1613C0.329979 48.1585 0.329805 48.156 0.330403 48.1524C0.329477 48.1514 0.329477 48.1505 0.329477 48.1486L0.328466 48.1412L0.327626 48.1346C0.326701 48.1336 0.326701 48.1327 0.326701 48.1318C0.326186 48.1281 0.325672 48.1259 0.325158 48.1237L0.323924 48.1177V48.1139L0.322913 48.1065L0.322073 48.0999C0.322073 48.0989 0.322073 48.098 0.321148 48.0961C0.321148 48.0947 0.320891 48.0931 0.320617 48.0913C0.320154 48.0883 0.319641 48.085 0.320222 48.0821C0.319297 48.0811 0.319297 48.0811 0.319297 48.0802C0.318371 48.0755 0.317446 48.0708 0.31652 48.0652V48.0643C0.314112 48.0504 0.312226 48.0363 0.310334 48.0221C0.307863 48.0035 0.305381 47.9848 0.301712 47.9668V47.964L0.298936 47.949V47.9462C0.298473 47.9438 0.298473 47.9415 0.298473 47.9391C0.298473 47.9368 0.298473 47.9345 0.29801 47.9321L0.297947 47.9317L0.297665 47.9309C0.297402 47.9302 0.297085 47.9295 0.297085 47.9284L0.296683 47.9264C0.295909 47.9226 0.295234 47.9192 0.295234 47.9152L0.294889 47.9137C0.294626 47.9128 0.294308 47.9117 0.294308 47.9106C0.294308 47.9082 0.294077 47.9063 0.293845 47.9045C0.293614 47.9026 0.293383 47.9007 0.293383 47.8984C0.292457 47.8965 0.292457 47.8937 0.292457 47.8918C0.292457 47.8904 0.292226 47.8883 0.291994 47.8862C0.291763 47.8841 0.291532 47.882 0.291532 47.8806C0.290606 47.8796 0.290606 47.8768 0.290606 47.8749C0.289681 47.8735 0.289218 47.8714 0.288755 47.8693C0.288292 47.8672 0.28783 47.8651 0.286904 47.8637C0.28783 47.8618 0.28783 47.8599 0.286904 47.8571L0.28675 47.8542L0.286441 47.8515C0.28621 47.8496 0.285979 47.8478 0.285979 47.8459C0.285979 47.8449 0.285747 47.844 0.285516 47.8431C0.285285 47.8421 0.285053 47.8412 0.285053 47.8403C0.285053 47.8379 0.284822 47.836 0.28459 47.8342C0.284359 47.8323 0.284128 47.8304 0.284128 47.8281C0.283202 47.8262 0.283202 47.8234 0.283202 47.8215L0.282277 47.818C0.28166 47.8157 0.281043 47.8134 0.280426 47.8103C0.2795 47.8093 0.2795 47.8065 0.2795 47.8056C0.279038 47.8032 0.278806 47.8011 0.278575 47.799C0.278343 47.7969 0.278112 47.7948 0.277649 47.7925C0.277649 47.792 0.277881 47.7913 0.278112 47.7906C0.278343 47.7899 0.278575 47.7892 0.278575 47.7887C0.277649 47.784 0.276724 47.7784 0.276724 47.7747C0.276724 47.7737 0.276724 47.7728 0.275798 47.7718L0.275217 47.7674C0.273541 47.7545 0.27171 47.7404 0.268394 47.7278C0.268394 47.7268 0.268163 47.7261 0.267932 47.7254C0.2677 47.7247 0.267469 47.724 0.267469 47.7231L0.267254 47.7195C0.267052 47.7173 0.266861 47.7153 0.267469 47.7128C0.267469 47.7112 0.267188 47.71 0.266936 47.7088L0.266682 47.7076L0.266543 47.7062C0.265618 47.7015 0.265618 47.6997 0.265618 47.6959C0.264692 47.6931 0.264692 47.6903 0.264692 47.6875C0.264172 47.6854 0.263945 47.6839 0.263681 47.6821L0.262841 47.6772C0.262841 47.6753 0.262841 47.6725 0.261916 47.6697C0.261916 47.6659 0.261916 47.664 0.26099 47.6603C0.26099 47.6594 0.260528 47.6582 0.260065 47.657C0.259602 47.6558 0.259139 47.6547 0.259139 47.6537C0.259139 47.6523 0.258908 47.6505 0.258676 47.6486L0.258471 47.6469L0.258214 47.6434C0.259139 47.6406 0.258214 47.6378 0.257288 47.635C0.257288 47.6336 0.257057 47.6319 0.256826 47.6303L0.256507 47.6279L0.256363 47.6256C0.254512 47.6228 0.254512 47.62 0.254512 47.6162C0.254049 47.6148 0.253818 47.6134 0.253586 47.612C0.253355 47.6106 0.253124 47.6092 0.252661 47.6078L0.252689 47.606L0.252661 47.6059C0.252661 47.6045 0.252429 47.6031 0.252198 47.6017C0.251967 47.6003 0.251735 47.5989 0.251735 47.5975C0.251735 47.5961 0.251504 47.5945 0.251273 47.5928C0.251041 47.5912 0.25081 47.5895 0.25081 47.5881C0.25081 47.5853 0.25081 47.5825 0.251735 47.5797C0.251301 47.5784 0.251071 47.5768 0.250853 47.5754C0.250606 47.5738 0.250376 47.5723 0.249884 47.5713L0.249129 47.568C0.248729 47.5659 0.248307 47.5637 0.247108 47.5619C0.247108 47.5591 0.247108 47.5563 0.246182 47.5525L0.246075 47.5507L0.245769 47.5485C0.245523 47.5469 0.245257 47.5451 0.245257 47.5431C0.245257 47.5417 0.245025 47.5403 0.244794 47.5389C0.244563 47.5375 0.244331 47.5361 0.244331 47.5347L0.244179 47.5324L0.243869 47.53L0.243577 47.5278L0.243406 47.5253C0.242943 47.5239 0.242712 47.5223 0.24248 47.5206C0.242249 47.519 0.242018 47.5174 0.241555 47.516C0.241092 47.5145 0.241092 47.5129 0.241092 47.5113C0.241092 47.5096 0.241092 47.508 0.240629 47.5066C0.240629 47.5047 0.240629 47.5019 0.239704 47.4991C0.239704 47.4925 0.238778 47.4869 0.237853 47.4813C0.237853 47.4785 0.237853 47.4757 0.236927 47.4728L0.236316 47.4711C0.235392 47.4686 0.234329 47.4657 0.235076 47.4635C0.235076 47.4621 0.234845 47.4604 0.234614 47.4588C0.234382 47.4571 0.234151 47.4555 0.234151 47.4541C0.233225 47.4513 0.233225 47.4485 0.233225 47.4457C0.232763 47.4443 0.232531 47.4426 0.2323 47.441C0.232068 47.4393 0.231837 47.4377 0.231374 47.4363C0.2323 47.4335 0.2323 47.4307 0.231374 47.4279L0.229432 47.4217L0.228598 47.4185C0.228598 47.4166 0.228367 47.4152 0.228135 47.4138C0.227904 47.4124 0.227672 47.411 0.227672 47.4091C0.227672 47.4077 0.227441 47.4063 0.22721 47.4049C0.226978 47.4035 0.226747 47.4021 0.226747 47.4007C0.226747 47.3993 0.226516 47.3976 0.226284 47.396C0.226053 47.3943 0.225821 47.3927 0.225821 47.3913C0.224896 47.3885 0.224896 47.3857 0.224896 47.3829C0.223577 47.3809 0.223198 47.3789 0.222755 47.3765L0.222119 47.3735C0.222119 47.3707 0.222119 47.3679 0.221194 47.3651C0.222119 47.3613 0.222119 47.3585 0.221194 47.3557L0.220988 47.3529C0.220783 47.351 0.220577 47.3491 0.221194 47.3472C0.221194 47.3454 0.220963 47.3437 0.220731 47.3421C0.2205 47.3404 0.220268 47.3388 0.220268 47.3369L0.219697 47.3353C0.218997 47.3333 0.218417 47.3317 0.218417 47.3294C0.217492 47.3257 0.217492 47.3229 0.217492 47.3191C0.216566 47.3172 0.216566 47.3126 0.216566 47.3116C0.216133 47.3099 0.215902 47.3081 0.215684 47.3064C0.215437 47.3046 0.215207 47.3028 0.214715 47.3013C0.214715 47.3002 0.214398 47.2982 0.214134 47.2964L0.21379 47.2938C0.212864 47.2901 0.211939 47.2863 0.211939 47.2826C0.211939 47.2812 0.211708 47.28 0.211476 47.2788C0.211245 47.2777 0.211013 47.2765 0.211013 47.2751C0.211013 47.2731 0.210748 47.2711 0.210501 47.2692C0.210287 47.2676 0.210088 47.2661 0.210088 47.2648C0.209162 47.261 0.209162 47.2601 0.209162 47.2573C0.2087 47.2554 0.208468 47.2535 0.208237 47.2516C0.208006 47.2498 0.207774 47.2479 0.207311 47.246C0.207311 47.2441 0.206876 47.243 0.206303 47.2417L0.20546 47.2395C0.20546 47.2338 0.20546 47.2273 0.204535 47.2216C0.204072 47.2188 0.204072 47.216 0.204072 47.2132C0.204072 47.2104 0.204072 47.2076 0.203609 47.2048C0.203609 47.2029 0.203609 47.201 0.202684 47.1992L0.202213 47.1973C0.201469 47.1944 0.200833 47.192 0.200833 47.1888C0.200833 47.1873 0.200552 47.186 0.2003 47.1849C0.200094 47.184 0.199907 47.1831 0.199907 47.1823C0.199907 47.1809 0.199676 47.179 0.199445 47.1771C0.199213 47.1753 0.198982 47.1734 0.198982 47.172C0.198982 47.171 0.198751 47.1699 0.19852 47.1687C0.198288 47.1675 0.198056 47.1663 0.198056 47.1654L0.197953 47.1634L0.197594 47.1603L0.197264 47.1574L0.197131 47.1551C0.196205 47.1532 0.19528 47.1504 0.19528 47.1485C0.194354 47.1457 0.194354 47.142 0.194354 47.1382V47.1317C0.193892 47.1303 0.19366 47.1286 0.193429 47.127C0.193198 47.1253 0.192966 47.1237 0.192503 47.1223L0.192313 47.1203C0.192103 47.1187 0.191871 47.117 0.192503 47.1157C0.192159 47.1147 0.191943 47.1133 0.191711 47.1117C0.191321 47.1091 0.190889 47.1063 0.189727 47.1045V47.0998C0.188801 47.0951 0.187876 47.0904 0.187876 47.0867C0.187876 47.0848 0.187876 47.0839 0.18695 47.0829L0.186443 47.0754C0.185895 47.0667 0.185425 47.0591 0.183249 47.0511V47.0473C0.182323 47.0426 0.181397 47.0379 0.181397 47.0333V47.0304C0.180472 47.0248 0.180472 47.0229 0.180472 47.0164C0.179547 47.0154 0.178621 47.0145 0.178621 47.0126L0.178415 47.0079C0.17821 47.0048 0.178004 47.0017 0.178621 46.9986C0.177696 46.9976 0.177696 46.9967 0.177696 46.9958C0.177696 46.9892 0.177696 46.9873 0.17677 46.9817V46.9789L0.176172 46.9749C0.175711 46.9716 0.175348 46.9689 0.173994 46.9648V46.962C0.173531 46.9592 0.173299 46.9569 0.173068 46.9545C0.172837 46.9522 0.172605 46.9498 0.172143 46.947C0.171217 46.9461 0.171217 46.9451 0.171217 46.9451C0.16659 46.9114 0.162888 46.8786 0.161037 46.8439H0.160111C0.115687 46.4549 0.0749653 46.0678 0.0425729 45.6798C0.0421097 45.6793 0.0418783 45.6789 0.0416467 45.6784L0.0416417 45.6784C0.0414122 45.6779 0.0411809 45.6775 0.0407219 45.677C0.0413317 45.6739 0.0411379 45.6712 0.0409348 45.6684L0.0407219 45.6639C0.0397964 45.662 0.0397964 45.6601 0.0397964 45.6573L0.0396013 45.6544C0.0393923 45.6522 0.0391688 45.6498 0.0397964 45.6479C0.0388709 45.6451 0.0388709 45.6432 0.0397964 45.6404C0.0393336 45.639 0.0391023 45.6376 0.0388709 45.6362C0.0386395 45.6348 0.0384081 45.6334 0.0379454 45.632C0.0370199 45.6301 0.0370199 45.6273 0.0370199 45.6236V45.6189C0.0365571 45.617 0.0365571 45.6149 0.0365571 45.6128C0.0365571 45.6107 0.0365571 45.6086 0.0360944 45.6067V45.6048C0.0268521 45.4925 0.0176098 45.383 0.00836748 45.2735L0.00832948 45.273L3.69829 44.9787C3.74456 45.5673 3.80379 46.1634 3.87598 46.7521C4.04905 48.1411 4.29431 49.5339 4.61175 50.8874ZM0.254512 47.6153L0.253606 47.6092C0.254127 47.6113 0.254512 47.6135 0.254512 47.6153ZM5.89542 63.8464L9.06062 61.9024C8.0435 60.2031 7.15224 58.4101 6.41 56.573L2.98288 57.9921L2.98358 57.9925C2.9835 57.9926 2.98348 57.9927 2.9838 57.993L2.98679 58.0015L2.98923 58.0086L2.99121 58.0136L2.99133 58.0141L2.9919 58.0148C2.99242 58.0155 2.99306 58.0163 2.99306 58.0174C2.99756 58.0265 3.00138 58.0353 3.00514 58.0439L3.00515 58.0439L3.01249 58.0605C3.01249 58.0624 3.01342 58.0642 3.01435 58.0652L3.01667 58.0719C3.0184 58.0771 3.02008 58.0821 3.02267 58.0867V58.0895C3.02638 58.0961 3.02823 58.1027 3.031 58.1092L3.03286 58.1111C3.03563 58.1186 3.03841 58.1261 3.04118 58.1326C3.04211 58.1336 3.04211 58.1345 3.04304 58.1364L3.04807 58.1471C3.05313 58.1577 3.05832 58.1685 3.06247 58.1805C3.0634 58.1814 3.0634 58.1823 3.0634 58.1833L3.06813 58.1939C3.07355 58.206 3.07829 58.2165 3.08191 58.2283V58.2301C3.08329 58.2339 3.08514 58.2376 3.08699 58.2414C3.08885 58.2451 3.0907 58.2489 3.09209 58.2526L3.09301 58.2536C3.09949 58.2695 3.10504 58.2845 3.11245 58.3004L3.11337 58.3014C3.12078 58.3173 3.12726 58.3323 3.13281 58.3492C3.13559 58.3576 3.13836 58.366 3.14114 58.3726C3.92966 60.2772 4.85331 62.1049 5.89542 63.8464ZM16.6441 71.0054L14.2166 73.836C12.5877 72.4029 11.0662 70.8442 9.67052 69.1683L12.4998 66.751C13.7668 68.2685 15.1596 69.6998 16.6441 71.0054ZM25.1476 80.7813L26.6081 77.3359C24.8043 76.5523 23.0477 75.6197 21.3827 74.5615L19.4142 77.738C20.1851 78.2272 20.9718 78.6921 21.7714 79.1289H21.7723L21.7887 79.1378C21.7985 79.1432 21.8081 79.1484 21.8177 79.1533C21.8399 79.1655 21.8621 79.1767 21.8834 79.1898H21.8843C21.8897 79.1926 21.895 79.1954 21.9004 79.1983L21.9006 79.1984C21.9064 79.2016 21.9122 79.2048 21.9184 79.2079C21.922 79.2097 21.9258 79.2115 21.9297 79.2133V79.2142C21.9346 79.2163 21.9401 79.2196 21.9453 79.2227L21.9455 79.2228L21.95 79.2254L21.9509 79.2264C21.9572 79.2296 21.9632 79.2327 21.9691 79.2359C21.9732 79.2381 21.9773 79.2403 21.9814 79.2426C21.9854 79.2447 21.9894 79.2468 21.9935 79.2489H21.9954L22.0034 79.2535C22.0153 79.2603 22.0268 79.2669 22.0389 79.2723L22.0398 79.2732C22.0455 79.2758 22.0504 79.2789 22.055 79.2817L22.0611 79.2854L22.0616 79.2859C22.0617 79.2858 22.0617 79.2854 22.0629 79.2854C22.0768 79.2939 22.0916 79.3014 22.1064 79.3079L22.1075 79.3084C22.1084 79.3089 22.1087 79.3089 22.1101 79.3089C22.1134 79.3107 22.1166 79.3128 22.1198 79.3149C22.1231 79.317 22.1263 79.3192 22.1296 79.321L22.1305 79.322C22.1362 79.3246 22.1411 79.3272 22.1454 79.3294L22.1509 79.3323L22.1518 79.3332C22.1592 79.337 22.1657 79.3407 22.1721 79.3445C22.1724 79.3447 22.1727 79.3449 22.1729 79.3451C22.1731 79.3452 22.1733 79.3453 22.1735 79.3454C22.1738 79.3456 22.174 79.3457 22.1743 79.3458C22.1745 79.346 22.1747 79.3461 22.1749 79.3464C22.1779 79.3479 22.1809 79.3495 22.1838 79.351C22.1862 79.3523 22.1885 79.3536 22.1908 79.3549C22.1995 79.3597 22.2078 79.3644 22.2166 79.3679C22.217 79.3683 22.2176 79.3686 22.2183 79.3688C22.2188 79.369 22.2193 79.3691 22.2197 79.3694C22.2199 79.3695 22.2201 79.3696 22.2203 79.3698L22.2279 79.3736C22.2305 79.3749 22.233 79.3762 22.2354 79.3776C22.2372 79.3787 22.2389 79.3798 22.2406 79.381L22.2425 79.382C22.2499 79.3857 22.2554 79.3895 22.2619 79.3932H22.2628C22.2659 79.3948 22.269 79.3965 22.2719 79.3981L22.2745 79.3996C22.2777 79.4015 22.2806 79.4032 22.2832 79.4045L22.2869 79.4063C22.2934 79.4101 22.3008 79.4138 22.3063 79.4176L22.3073 79.4185C22.3114 79.4201 22.3153 79.4223 22.319 79.4244C22.3219 79.426 22.3248 79.4276 22.3276 79.4288L22.3295 79.4298C22.336 79.4335 22.3434 79.4373 22.3498 79.441C22.3517 79.442 22.3526 79.4429 22.3535 79.4429C22.3665 79.4504 22.3795 79.4579 22.3924 79.4645C22.3931 79.4645 22.3937 79.4646 22.3942 79.4648L22.3947 79.465C22.3952 79.4652 22.3957 79.4654 22.3961 79.4654C22.4044 79.4701 22.4109 79.4729 22.4174 79.4766L22.4193 79.4776C22.4241 79.4811 22.43 79.4835 22.4346 79.4861C22.4361 79.487 22.4375 79.4879 22.4387 79.4888L22.4415 79.4898C22.4452 79.4917 22.449 79.4936 22.4525 79.4955C22.4559 79.4973 22.4591 79.4992 22.4618 79.501L22.4637 79.5029C22.472 79.5057 22.4784 79.5094 22.4849 79.5131L22.485 79.5132C22.4914 79.5169 22.4988 79.5207 22.5053 79.5244C22.5062 79.5244 22.5067 79.5247 22.507 79.525L22.5081 79.5263C22.5146 79.5301 22.5229 79.5338 22.5275 79.5376C22.5294 79.5376 22.5294 79.5376 22.5303 79.5385C22.5377 79.5423 22.5442 79.5451 22.5507 79.5488C22.5516 79.5497 22.5497 79.5488 22.5516 79.5488C22.5553 79.5512 22.5585 79.553 22.5617 79.5548L22.571 79.5601C22.5738 79.5619 22.5729 79.561 22.5757 79.5619C22.5766 79.5629 22.5776 79.5637 22.5787 79.5645C22.5802 79.5656 22.5818 79.5666 22.5835 79.5675C22.5869 79.5694 22.5907 79.5712 22.5942 79.5732C22.596 79.5741 22.5951 79.5732 22.596 79.5741C22.6029 79.5764 22.6079 79.5794 22.613 79.5824L22.6164 79.5844C22.6169 79.5849 22.6173 79.5851 22.6178 79.5854C22.6181 79.5855 22.6183 79.5857 22.6186 79.5858C22.6188 79.586 22.619 79.5861 22.6192 79.5863C22.6233 79.5879 22.6272 79.59 22.6309 79.5921C22.6338 79.5938 22.6367 79.5954 22.6395 79.5966C22.6404 79.5975 22.6414 79.5975 22.6423 79.5985C22.6465 79.6005 22.6506 79.6025 22.6546 79.6046C22.6605 79.6077 22.6663 79.6109 22.6722 79.6141L22.683 79.62L22.6841 79.6201C22.6843 79.6201 22.6843 79.6202 22.6844 79.6203C22.6845 79.6205 22.6846 79.6207 22.6849 79.621C22.6941 79.6238 22.7006 79.6275 22.7071 79.6322L22.7089 79.6332L22.7191 79.6379L22.7302 79.6435L22.7311 79.6444C22.7376 79.6472 22.745 79.651 22.7506 79.6547C22.7524 79.6557 22.7534 79.6566 22.7543 79.6566L22.7648 79.6619C22.7681 79.6636 22.7714 79.6655 22.7746 79.6678C22.7802 79.6701 22.7848 79.6724 22.789 79.6747C22.7917 79.6761 22.7942 79.6776 22.7968 79.679L22.7969 79.6791C22.7971 79.6791 22.7973 79.6792 22.7976 79.6793L22.7982 79.6796C22.7987 79.6798 22.7992 79.68 22.7996 79.68C22.8052 79.6838 22.8117 79.6875 22.8181 79.6903C22.8191 79.6913 22.8191 79.6913 22.8209 79.6913L22.8404 79.7025L22.8408 79.7032C22.841 79.7035 22.841 79.7035 22.8422 79.7035C22.8496 79.7072 22.8552 79.711 22.8626 79.7138C22.8644 79.7138 22.8653 79.7147 22.8663 79.7156L22.873 79.7194C22.8775 79.7219 22.882 79.7244 22.8857 79.7269H22.8885L22.8965 79.7315C22.9003 79.7336 22.9041 79.7356 22.9079 79.7372L22.9107 79.7391C22.9181 79.7419 22.9236 79.7456 22.9301 79.7485C22.932 79.7494 22.9338 79.7503 22.9348 79.7513C22.9382 79.7528 22.9415 79.7546 22.9449 79.7565C22.9469 79.7576 22.949 79.7588 22.9512 79.76C22.9522 79.7605 22.9532 79.7611 22.9542 79.7616H22.9551C22.9608 79.7651 22.9659 79.7676 22.9704 79.7698L22.9745 79.7719C22.9754 79.7723 22.9762 79.7725 22.9769 79.7727C22.9778 79.773 22.9787 79.7732 22.9792 79.7738L22.9903 79.7796L22.9986 79.7841L23.0014 79.7859C23.0079 79.7897 23.0153 79.7925 23.0208 79.7963L23.0236 79.7972L23.0277 79.7996C23.0325 79.8025 23.0372 79.8053 23.043 79.8075C23.044 79.8084 23.0458 79.8084 23.0467 79.8094C23.0541 79.8131 23.0615 79.8169 23.068 79.8206L23.0689 79.8197C23.072 79.8219 23.0752 79.8236 23.0783 79.8252L23.0884 79.83C23.0891 79.8315 23.0898 79.8318 23.091 79.8323L23.0921 79.8328C23.096 79.8345 23.1002 79.8365 23.1042 79.8385C23.1067 79.8397 23.109 79.8409 23.1112 79.842L23.1115 79.8422L23.1143 79.845C23.1291 79.8516 23.143 79.8591 23.1569 79.8647C23.1578 79.8647 23.1596 79.8656 23.1615 79.8666L23.1698 79.8711L23.1809 79.8769C23.1811 79.8771 23.1813 79.8773 23.1813 79.8774C23.1814 79.8775 23.1814 79.8776 23.1815 79.8777C23.1816 79.8778 23.1819 79.8778 23.1828 79.8778C23.186 79.8797 23.1893 79.8813 23.1925 79.8829C23.1957 79.8846 23.199 79.8862 23.2022 79.8881C23.2041 79.8881 23.205 79.889 23.2059 79.89C23.2124 79.8928 23.2198 79.8956 23.2263 79.9003L23.2281 79.9007C23.2289 79.901 23.2299 79.9012 23.2309 79.9012C23.2345 79.9033 23.2381 79.9054 23.2418 79.9075C23.2442 79.9089 23.2467 79.9102 23.2491 79.9116C23.256 79.9154 23.2629 79.9189 23.2698 79.9219C23.2707 79.9228 23.2726 79.9228 23.2735 79.9237C23.28 79.9265 23.2874 79.9303 23.2929 79.934L23.2957 79.935C23.3022 79.9387 23.3087 79.9425 23.3161 79.9443L23.3179 79.9462C23.3253 79.949 23.3318 79.9528 23.3383 79.9575C23.3388 79.9575 23.3393 79.9575 23.3398 79.9576C23.3402 79.9577 23.3406 79.958 23.341 79.9584C23.3494 79.9621 23.3572 79.9661 23.3648 79.9701L23.3652 79.9702C23.3679 79.9716 23.3706 79.973 23.3733 79.9744C23.3764 79.976 23.3795 79.9775 23.3827 79.979C23.3833 79.979 23.3835 79.979 23.3841 79.9793C23.3844 79.9794 23.3848 79.9796 23.3855 79.98C23.3938 79.9837 23.4003 79.9865 23.4077 79.9903L23.4095 79.9921C23.4243 79.9987 23.4382 80.0053 23.453 80.0128L23.4558 80.0137C23.4623 80.0165 23.4697 80.0203 23.4762 80.024H23.4771L23.4864 80.0288C23.4891 80.0302 23.4918 80.0316 23.4943 80.033C23.4957 80.0337 23.4971 80.0345 23.4984 80.0353H23.4993L23.5069 80.0391C23.5117 80.0416 23.5163 80.0441 23.5206 80.0465L23.5212 80.047C23.5216 80.0471 23.5218 80.0468 23.5224 80.0474C23.5363 80.0549 23.5502 80.0615 23.565 80.0681L23.5657 80.0681C23.5659 80.0681 23.566 80.0682 23.5662 80.0683C23.5663 80.0685 23.5666 80.0687 23.5669 80.069C23.5752 80.0728 23.5817 80.0765 23.59 80.0793C23.5943 80.0824 23.5994 80.0851 23.6042 80.0877L23.6113 80.0915C23.6196 80.0953 23.6261 80.099 23.6335 80.1018L23.6354 80.1037C23.6427 80.1065 23.6498 80.1097 23.6569 80.1132C23.6617 80.1155 23.6666 80.118 23.6715 80.1205L23.6789 80.1243L23.6795 80.1241C23.6797 80.124 23.6799 80.1239 23.6801 80.1239C23.6802 80.1239 23.6804 80.124 23.6807 80.1243C23.6881 80.1281 23.6955 80.1318 23.702 80.1356H23.7029C23.7102 80.1386 23.717 80.142 23.7238 80.1454C23.7316 80.1493 23.7394 80.1531 23.7473 80.1562L23.7492 80.1581C23.7602 80.1626 23.7707 80.1681 23.781 80.1729C23.7856 80.175 23.7901 80.177 23.7945 80.1787C23.8177 80.189 23.8399 80.2002 23.8621 80.2115H23.863C23.8803 80.2199 23.8975 80.2277 23.9144 80.2355C23.9201 80.2381 23.9259 80.2407 23.9315 80.2433H23.9454C24.3424 80.4233 24.7441 80.6051 25.1476 80.7813ZM37.9954 80.2658L37.6548 84C37.1208 83.9494 36.5905 83.8885 36.0731 83.8247L36.0713 83.8257C36.0634 83.8243 36.0558 83.8231 36.0481 83.8219C36.0405 83.8207 36.0329 83.8196 36.025 83.8182H36.0213C36.0139 83.8163 36.0065 83.8154 35.9981 83.8154L35.9972 83.8144C35.9898 83.8135 35.9824 83.8125 35.975 83.8107H35.9722L35.95 83.8079C35.9491 83.8079 35.9472 83.8069 35.9454 83.8069L35.925 83.8041H35.9232C35.9167 83.8032 35.9084 83.8022 35.901 83.8013C35.8993 83.8007 35.8986 83.8005 35.8977 83.8004C35.8972 83.8004 35.8965 83.8004 35.8954 83.8004L35.8751 83.7975C35.8738 83.7969 35.8734 83.7967 35.8724 83.7966C35.8719 83.7966 35.8713 83.7966 35.8704 83.7966L35.8519 83.7938C35.8515 83.7938 35.8501 83.7936 35.8487 83.7933C35.8473 83.7931 35.8459 83.7929 35.8454 83.7929C35.8421 83.7924 35.8385 83.7921 35.8348 83.7919C35.8313 83.7917 35.8277 83.7914 35.8242 83.791C35.8232 83.79 35.8205 83.7891 35.8195 83.7901C35.8166 83.7891 35.8134 83.7886 35.8103 83.7881C35.8074 83.7877 35.8046 83.7872 35.8019 83.7863C35.8009 83.7863 35.7998 83.7863 35.7985 83.7861C35.7976 83.786 35.7966 83.7858 35.7955 83.7854L35.776 83.7826C35.7744 83.7826 35.773 83.7826 35.7716 83.7823C35.7707 83.7822 35.7697 83.782 35.7686 83.7816C35.7642 83.7809 35.7593 83.7807 35.7546 83.7798C35.7534 83.7795 35.7522 83.7792 35.751 83.7788H35.7427L35.7261 83.776C35.7233 83.7751 35.7205 83.7751 35.7168 83.7751C35.7146 83.7747 35.7125 83.7743 35.7103 83.7739C35.706 83.7731 35.7017 83.7722 35.6974 83.7722C35.6953 83.7715 35.6937 83.7708 35.6919 83.7705C35.6913 83.7704 35.6907 83.7704 35.69 83.7704C35.6853 83.7694 35.6798 83.7685 35.6752 83.7685C35.6734 83.7685 35.6723 83.7683 35.6711 83.7681C35.6698 83.7678 35.6683 83.7676 35.6659 83.7676L35.6483 83.7647C35.6437 83.7647 35.6409 83.7638 35.6372 83.7629C35.6335 83.7619 35.6289 83.7619 35.6252 83.7619C35.6215 83.761 35.6168 83.7601 35.6122 83.7591C35.6076 83.7591 35.602 83.7582 35.5974 83.7572C35.5946 83.7572 35.5891 83.7563 35.5863 83.7563C35.5826 83.7554 35.5789 83.7535 35.5743 83.7535C35.5678 83.7535 35.5641 83.7526 35.5585 83.7516C35.556 83.7516 35.5534 83.7512 35.5512 83.7509C35.5502 83.7508 35.5492 83.7507 35.5484 83.7507C35.546 83.7501 35.5437 83.7495 35.5413 83.7491C35.54 83.7489 35.5386 83.7488 35.5373 83.7488C35.5317 83.7479 35.528 83.7469 35.5234 83.746C35.519 83.746 35.5157 83.7454 35.5118 83.7447L35.5086 83.7441C35.5071 83.7436 35.5053 83.7434 35.5035 83.7431C35.5019 83.7429 35.5001 83.7427 35.4984 83.7422C35.4928 83.7413 35.4882 83.7413 35.4826 83.7413C35.4789 83.7404 35.4743 83.7394 35.4688 83.7385C35.4651 83.7376 35.4614 83.7366 35.4558 83.7366C35.4545 83.7362 35.4533 83.7362 35.452 83.7362C35.4505 83.7362 35.449 83.7362 35.4475 83.7357C35.441 83.7347 35.4345 83.7329 35.428 83.7329C35.4265 83.7324 35.4251 83.7321 35.4234 83.7319C35.422 83.7317 35.4205 83.7314 35.4188 83.731C35.4132 83.7301 35.4114 83.7301 35.4058 83.7291C35.404 83.7291 35.4012 83.7282 35.3984 83.7282C35.3919 83.7263 35.3864 83.7254 35.3771 83.7254C35.3744 83.7244 35.3725 83.7244 35.3707 83.7235C35.3568 83.7216 35.341 83.7188 35.3281 83.716H35.3225C35.3133 83.7151 35.3031 83.7132 35.2938 83.7113C35.2911 83.7108 35.2888 83.7106 35.2864 83.7104C35.2841 83.7101 35.2818 83.7099 35.279 83.7094C35.2772 83.7085 35.2753 83.7085 35.2744 83.7085C35.2661 83.7076 35.2568 83.7057 35.2476 83.7048C35.2476 83.7044 35.2474 83.7043 35.2472 83.7043C35.2468 83.7043 35.2463 83.7044 35.2457 83.7038C35.2379 83.7029 35.2302 83.7017 35.2226 83.7005C35.215 83.6994 35.2073 83.6982 35.1994 83.6973C35.1985 83.6973 35.1976 83.6963 35.1967 83.6963C35.18 83.6935 35.1671 83.6916 35.1504 83.6888H35.1476C35.1334 83.6862 35.1194 83.6839 35.1052 83.6816C35.0936 83.6797 35.0819 83.6778 35.0699 83.6757H35.069C35.0607 83.6747 35.0529 83.6735 35.0449 83.6721C35.0378 83.6709 35.0306 83.6695 35.0227 83.6682H35.0218C34.9801 83.6626 34.9394 83.656 34.8959 83.6485C34.4211 83.5707 33.9482 83.4864 33.4789 83.3917H33.478C33.4706 83.3904 33.4633 83.389 33.4561 83.3876C33.4482 83.386 33.4404 83.3843 33.4327 83.3823C33.4317 83.3814 33.4308 83.3814 33.4308 83.3814C33.4151 83.3786 33.4012 83.3758 33.3855 83.373C33.3851 83.373 33.3849 83.373 33.3847 83.3729C33.3844 83.3728 33.3842 83.3726 33.3836 83.372C33.378 83.3711 33.3734 83.3701 33.3687 83.3692C33.3641 83.3683 33.3595 83.3673 33.354 83.3664C33.354 83.3664 33.3531 83.3664 33.3522 83.3655C33.3355 83.3626 33.3235 83.3598 33.3077 83.357C33.3059 83.357 33.305 83.357 33.304 83.3561C33.2883 83.3523 33.2753 83.3495 33.2596 83.3467C33.2587 83.3467 33.2578 83.3467 33.2568 83.3458C33.2516 83.3449 33.2474 83.3442 33.2433 83.3435C33.2386 83.3426 33.234 83.3416 33.2281 83.3401H33.2254C33.223 83.3397 33.2207 83.339 33.2184 83.3383C33.2161 83.3376 33.2138 83.3369 33.2115 83.3364H33.2078C33.2004 83.3345 33.1911 83.3326 33.1828 83.3308C33.1819 83.3303 33.1809 83.3301 33.18 83.3298C33.1791 83.3296 33.1782 83.3294 33.1772 83.3289C33.1754 83.3284 33.1731 83.328 33.1706 83.3276C33.1682 83.3273 33.1657 83.327 33.1633 83.327C33.1624 83.3266 33.1615 83.3263 33.1606 83.3261C33.1596 83.3259 33.1587 83.3256 33.1578 83.3252C33.1541 83.3242 33.1502 83.3235 33.1462 83.3228C33.1423 83.3221 33.1384 83.3214 33.1347 83.3205C33.1331 83.3205 33.1319 83.3202 33.1308 83.3199C33.1298 83.3197 33.129 83.3195 33.1282 83.3195C33.1255 83.3189 33.1229 83.3183 33.1202 83.3178C33.1154 83.3167 33.1104 83.3157 33.105 83.3139C33.1032 83.3139 33.1013 83.313 33.0995 83.313C33.0979 83.3127 33.0966 83.3123 33.0953 83.312C33.0926 83.3114 33.0899 83.3108 33.0856 83.3102C33.0847 83.3102 33.0828 83.3092 33.081 83.3092L33.0597 83.3036C33.0569 83.3027 33.0541 83.3036 33.0523 83.3036C33.0498 83.3026 33.0478 83.3021 33.0457 83.3016C33.0438 83.3012 33.0419 83.3007 33.0393 83.2999C33.0375 83.2999 33.0356 83.2989 33.0338 83.298C33.0273 83.297 33.0199 83.2952 33.0134 83.2933C33.012 83.2933 33.0106 83.2933 33.0091 83.293C33.0076 83.2928 33.006 83.2923 33.0042 83.2914C33.0005 83.2914 32.9958 83.2895 32.9921 83.2895C32.9891 83.289 32.986 83.2882 32.9831 83.2874C32.9807 83.2868 32.9785 83.2862 32.9764 83.2858C32.9742 83.2853 32.9723 83.2851 32.9704 83.2849C32.9683 83.2846 32.9663 83.2844 32.9644 83.2839C32.9616 83.283 32.9588 83.282 32.956 83.282C32.951 83.2803 32.9445 83.2794 32.9386 83.2786L32.9366 83.2783C32.9329 83.2774 32.9301 83.2764 32.9273 83.2755C32.9227 83.2745 32.9199 83.2745 32.9153 83.2736C32.9136 83.2732 32.9119 83.2728 32.9103 83.2723C32.9084 83.2718 32.9066 83.2713 32.9051 83.2708C32.8996 83.2699 32.8922 83.268 32.8866 83.267C32.8852 83.2666 32.8836 83.2663 32.882 83.2661C32.8804 83.2659 32.8788 83.2656 32.8774 83.2652L32.8663 83.2624L32.864 83.2619C32.8604 83.2611 32.8573 83.2605 32.8542 83.2605C32.8478 83.2586 32.8441 83.2577 32.8376 83.2567C32.8348 83.2553 32.8325 83.255 32.83 83.2549C32.8292 83.2549 32.8283 83.2549 32.8274 83.2549L32.8172 83.252C32.8117 83.2502 32.8052 83.2492 32.7996 83.2483C32.7959 83.2474 32.7932 83.2474 32.7895 83.2464C32.7874 83.2459 32.7853 83.2454 32.7831 83.2448C32.7813 83.2444 32.7795 83.244 32.7774 83.2436C32.7719 83.2417 32.7682 83.2408 32.7626 83.2399C32.7589 83.2389 32.7543 83.2389 32.7497 83.238C32.7469 83.2361 32.7422 83.2361 32.7441 83.238C32.7409 83.2373 32.7377 83.2362 32.7344 83.2353C32.733 83.2349 32.7316 83.2345 32.7302 83.2342C32.7281 83.2338 32.726 83.2336 32.7239 83.2334C32.7214 83.2331 32.7189 83.2329 32.7163 83.2324L32.7043 83.2296C32.7025 83.2291 32.7008 83.2288 32.6992 83.2286C32.6976 83.2284 32.696 83.2281 32.6941 83.2277C32.6913 83.2267 32.6883 83.226 32.6853 83.2253C32.6823 83.2246 32.6793 83.2239 32.6765 83.223C32.6748 83.2224 32.6727 83.2222 32.6706 83.2219C32.6695 83.2217 32.6683 83.2215 32.6673 83.2211L32.6534 83.2183C32.652 83.2178 32.6509 83.2176 32.6497 83.2174C32.6486 83.2171 32.6474 83.2169 32.646 83.2164C32.6398 83.2149 32.6342 83.2139 32.6293 83.2131L32.6266 83.2127C32.6252 83.2122 32.6238 83.2118 32.6226 83.2114C32.6213 83.211 32.6201 83.2108 32.6192 83.2108C32.6118 83.2089 32.6062 83.208 32.6006 83.2061C32.5997 83.2061 32.5969 83.2052 32.596 83.2052C32.5915 83.2046 32.5873 83.2037 32.5835 83.2029C32.5811 83.2023 32.5788 83.2018 32.5766 83.2014C32.5758 83.2011 32.575 83.201 32.5743 83.2008C32.5726 83.2003 32.5711 83.1999 32.5692 83.1986C32.5636 83.1977 32.5562 83.1958 32.5497 83.1939H32.5442C32.5386 83.193 32.5322 83.1911 32.5266 83.1892H32.5211C32.5179 83.1882 32.5135 83.1871 32.5091 83.186C32.5058 83.1852 32.5025 83.1844 32.4998 83.1836C32.4988 83.1836 32.4961 83.1827 32.4942 83.1817L32.4918 83.1814C32.4868 83.1805 32.4813 83.1796 32.4757 83.178C32.4748 83.178 32.4739 83.178 32.4729 83.1771C32.4664 83.1761 32.459 83.1742 32.4516 83.1724C32.4497 83.1724 32.4487 83.1719 32.4473 83.1717C32.4467 83.1715 32.446 83.1714 32.4452 83.1714C32.4387 83.1696 32.4322 83.1686 32.4248 83.1658H32.423C32.4193 83.1646 32.4151 83.1637 32.4103 83.1628C32.4079 83.1623 32.4054 83.1618 32.4026 83.1611C32.4017 83.1611 32.3998 83.1602 32.3989 83.1593C32.3924 83.1583 32.385 83.1564 32.3776 83.1546H32.3748C32.3683 83.1536 32.3619 83.1518 32.3554 83.1489H32.3517C32.3452 83.1471 32.3378 83.1452 32.3304 83.1433C32.3293 83.1433 32.3289 83.1433 32.3285 83.1431C32.3282 83.143 32.328 83.1428 32.3276 83.1424C32.3219 83.1412 32.3164 83.14 32.3112 83.1389C32.3003 83.1367 32.2901 83.1346 32.2795 83.1321L32.2776 83.1311C32.2616 83.1275 32.2464 83.1239 32.2312 83.1203L32.2295 83.1199C31.9121 83.0458 31.5937 82.969 31.2781 82.8865L32.1879 79.2536C34.0888 79.7419 36.0426 80.084 37.9954 80.2658Z" fill="black"/>
<path d="M42 0V84C65.1961 84 84 65.1961 84 42C84 18.8039 65.1961 0 42 0Z" fill="#FF01FF"/>
</svg>
