<svg width="84" height="90" viewBox="0 0 84 90" fill="none" xmlns="http://www.w3.org/2000/svg">
<rect width="84" height="90" fill="#F2F2F2"/>
<rect width="1920" height="3655" transform="translate(-1388 -850)" fill="white"/>
<rect x="-1388" y="-128" width="1920" height="485" fill="#F8F8F8"/>
<g clip-path="url(#clip0)">
<path fill-rule="evenodd" clip-rule="evenodd" d="M43.8699 27.0746C43.8699 27.0746 45.1684 24.09 45.9342 24.7933C46.7 25.4966 49.1 25.381 49.1 27.7998C49.1 30.2186 49.1 35.4886 49.1 36.1942C49.1 36.8998 52.6561 38.4498 52.6561 38.4498C52.6561 38.4498 56.9252 39.9524 56.4415 42.2498C55.9577 44.5472 54 57.8998 54 57.8998L45.9342 59.2498L27.75 55.8998V41.9545L37.4842 37.8998L43.8699 27.0746Z" fill="#FF01FF"/>
<path fill-rule="evenodd" clip-rule="evenodd" d="M80.3002 42.6998C81.1002 39.2998 81.8002 36.0998 82.3002 33.0998V32.9998C83.8002 23.7998 83.8002 17.1998 83.8002 16.7998C83.8002 15.2998 82.7002 14.0998 81.2002 13.9998C81.1002 13.9998 72.3002 13.0998 62.0002 9.6998C58.1002 8.3998 54.1002 6.7998 50.1002 4.6998C47.9002 3.4998 45.7002 2.1998 43.6002 0.699805C42.6002 -0.000195324 41.3002 -0.000195324 40.3002 0.699805C40.1002 0.849782 39.8753 0.99976 39.6503 1.14974L39.6502 1.1498C39.4252 1.2998 39.2002 1.4498 39.0002 1.5998C38.3002 2.0998 37.7002 2.4998 37.0002 2.8998C36.9502 2.8998 36.9252 2.9248 36.9002 2.9498C36.8752 2.9748 36.8502 2.9998 36.8002 2.9998C36.1002 3.3998 35.4002 3.7998 34.8002 4.1998C33.0002 5.1998 31.2002 6.0998 29.4002 6.8998C29.0002 7.0498 28.6252 7.2248 28.2502 7.3998L28.2502 7.39981C27.8752 7.57481 27.5002 7.74981 27.1002 7.8998C27.0502 7.8998 27.0252 7.9248 27.0002 7.9498C26.9752 7.9748 26.9502 7.9998 26.9002 7.9998L26.9002 7.99982C26.1002 8.29982 25.3002 8.59981 24.6002 8.89981C22.8291 9.57451 21.1291 10.107 19.5003 10.6171L19.5002 10.6171L19.4997 10.6173L19.4979 10.6179C19.1962 10.7124 18.897 10.8061 18.6002 10.8998C16.9222 11.4297 15.3222 11.8036 13.8002 12.1593L13.8002 12.1593C13.5988 12.2063 13.3988 12.2531 13.2002 12.2998L12.7952 12.3899L12.7952 12.3899C10.2792 12.9495 8.20935 13.4099 6.5002 13.5998L5.74855 13.7127L5.74835 13.7127C4.17729 13.949 3.17389 14.0998 3.0002 14.0998H2.9002H2.7002C2.3002 14.0998 1.8002 14.3998 1.8002 14.3998C0.900195 14.8998 0.200195 15.7998 0.200195 16.8998C0.200195 17.1998 0.200195 19.8998 0.600195 24.0998V24.1998C0.600195 24.6998 0.700195 25.2998 0.800195 25.8998V26.0998C0.900195 26.5998 1.0002 27.1998 1.0002 27.7998V27.9998C1.4002 31.3998 2.1002 35.4998 3.0002 39.7998C3.04718 40.0034 3.09416 40.2094 3.14152 40.4172C3.39661 41.5359 3.66284 42.7034 4.0002 43.7998V43.9998C4.07978 44.4773 4.2227 44.8915 4.37855 45.3431C4.41853 45.459 4.45936 45.5773 4.5002 45.6998C4.5002 45.7998 4.5252 45.8748 4.5502 45.9498C4.5752 46.0248 4.6002 46.0998 4.6002 46.1998C4.70018 46.4998 4.80016 46.8247 4.90015 47.1497L4.9002 47.1498L4.90021 47.1499L4.90023 47.1499L4.90025 47.15L4.90027 47.15L4.90029 47.1501L4.90031 47.1501L4.90033 47.1502L4.90034 47.1503L4.90036 47.1503L4.90038 47.1504L4.9004 47.1504L4.90042 47.1505L4.90044 47.1505L4.90046 47.1506L4.90047 47.1507C5.00038 47.4754 5.10029 47.8001 5.2002 48.0998L5.5002 48.9998C8.4002 58.1998 12.3002 66.1998 17.2002 72.5998C23.6002 80.9998 31.6002 86.7998 41.1002 89.7998C41.4002 89.9998 41.7002 89.9998 42.0002 89.9998C42.3002 89.9998 42.6002 89.9998 42.9002 89.8998C47.3002 88.4998 51.5002 86.3998 55.2002 83.7998C56.5002 82.8998 57.8002 81.8998 59.0002 80.8998C60.4002 79.6998 61.8002 78.3998 63.1002 76.8998C63.3502 76.5998 63.6002 76.3248 63.8502 76.0498C64.1002 75.7748 64.3502 75.4998 64.6002 75.1998L64.7002 75.0998L66.2002 73.2998C66.3002 73.1998 66.3752 73.0998 66.4502 72.9998C66.5252 72.8998 66.6002 72.7998 66.7002 72.6998C67.3281 71.8835 67.9166 71.0277 68.5153 70.1573L68.5154 70.1571C68.87 69.6414 69.2282 69.1206 69.6002 68.5998C69.8002 68.2998 70.0002 67.9748 70.2002 67.6498C70.4002 67.3248 70.6002 66.9998 70.8002 66.6998C70.8502 66.5998 70.9252 66.4748 71.0002 66.3498C71.0752 66.2248 71.1502 66.0998 71.2002 65.9998C72.5002 63.7998 73.7002 61.4998 74.8002 58.9998C74.9502 58.6998 75.0752 58.3748 75.2002 58.0498C75.3252 57.7248 75.4502 57.3998 75.6002 57.0998C75.6502 56.9998 75.7002 56.8748 75.7502 56.7498C75.8002 56.6248 75.8502 56.4998 75.9002 56.3998C76.9002 53.7998 77.9002 51.0998 78.8002 48.2998C79.3002 46.2998 79.8002 44.3998 80.3002 42.6998ZM72.3002 49.5998L52.0002 29.1998L51.9803 29.0598C51.8861 28.3941 51.7804 27.6469 51.5002 26.8998C50.7002 24.0998 48.7002 22.4998 46.3002 22.4998C45.9059 22.4998 45.5117 22.543 45.3728 22.5726L33.7002 10.9998C35.5002 10.1998 37.2002 9.1998 38.9002 8.1998L74.2002 43.3998C73.9002 44.3998 73.6002 45.3998 73.3002 46.4998C73.2446 46.6852 73.189 46.874 73.1327 47.065C72.8855 47.9042 72.626 48.7852 72.3002 49.5998ZM45.4002 22.5998L45.3728 22.5726C45.3003 22.588 45.2973 22.5998 45.4002 22.5998ZM55.0002 47.3998C55.1002 46.9998 55.0002 46.4998 54.9002 46.0998C54.6002 45.1998 54.7002 44.1998 55.0002 43.3998C55.1002 43.1998 55.2002 42.8998 55.2002 42.2998C55.2002 41.5998 55.0002 40.9998 54.7002 40.5998C54.5002 40.2998 54.2002 39.9998 53.4002 39.9998H51.1002C49.8002 39.9998 48.6002 39.3998 47.9002 38.2998C47.1002 37.1998 46.9002 35.7998 47.4002 34.5998C48.2002 32.5998 48.3002 30.3998 47.6002 28.1998C47.4002 27.5998 47.0002 26.5998 46.2002 26.5998C45.6002 26.5998 45.1002 26.9998 45.0002 27.5998C44.5002 31.1998 43.1002 33.0998 41.6002 35.0998C41.4577 35.2992 41.3072 35.4987 41.1531 35.7027C40.7664 36.2149 40.3577 36.7562 40.0002 37.3998C36.9002 42.2998 31.8002 42.7998 28.6002 42.8998V55.1998C33.0002 55.2998 35.6002 55.8998 38.2002 56.4998L38.4951 56.5687C41.3871 57.245 44.1873 57.8998 49.7002 57.8998C51.7002 57.8998 52.4002 57.1998 52.7002 56.5998C52.8002 56.2998 52.8002 55.9998 52.8002 55.6998C52.7002 54.6998 52.9002 53.6998 53.5002 52.8998C53.6002 52.7998 53.7002 52.6998 53.7002 52.5998C54.0002 52.0998 54.1002 51.4998 54.0002 50.9998C53.9002 50.0998 54.1002 49.0998 54.7002 48.2998C54.721 48.2582 54.7461 48.2167 54.7728 48.1724C54.8747 48.0037 55.0002 47.7959 55.0002 47.3998ZM51.0002 61.7998C51.1002 61.8998 51.2002 61.8998 51.2002 61.7998H51.0002ZM60.8002 15.1998C56.2002 13.6998 51.4002 11.7998 46.7002 9.1998L75.6002 37.8998C76.1002 35.4998 76.5002 33.1998 76.8002 31.0998L60.8002 15.1998ZM77.6002 25.0998L70.3002 17.7998C73.5002 18.4998 76.2002 18.9998 78.1002 19.2998C77.9659 20.2399 77.8767 21.4504 77.772 22.871L77.772 22.8714L77.772 22.8717L77.772 22.872V22.872C77.7208 23.5668 77.6659 24.3117 77.6002 25.0998ZM41.6002 25.6998L29.0002 13.0998C27.0002 13.8998 25.0002 14.5998 23.1002 15.1998L39.4002 31.5998C40.3002 30.2998 40.9002 29.0998 41.2002 27.0998C41.3002 26.5998 41.4002 26.0998 41.6002 25.6998ZM17.8002 16.7998L36.6002 35.4998C35.1508 37.6358 33.0613 38.3751 30.82 38.65C31.1134 38.6086 31.4068 38.5585 31.7002 38.4998L11.3002 18.2998C13.2002 17.8998 15.4002 17.3998 17.8002 16.7998ZM28.7002 38.7998C29.4068 38.7998 30.1134 38.7499 30.82 38.65C30.1232 38.7355 29.4117 38.7761 28.7002 38.7998ZM27.1002 38.9998C27.2002 38.8998 27.4002 38.8998 27.6002 38.8998C27.5002 38.8998 27.4252 38.9248 27.3502 38.9498C27.2752 38.9748 27.2002 38.9998 27.1002 38.9998ZM26.7002 38.9998C26.6577 38.9998 26.6333 38.9998 26.6115 39.0075C26.5821 39.0179 26.5577 39.0423 26.5002 39.0998C26.6002 39.0998 26.7002 39.0998 26.7002 38.9998ZM24.8002 41.7998C24.8002 40.8998 25.2002 40.0998 25.8002 39.5998L6.0002 19.8998C6.1002 21.9998 6.4002 24.9998 6.9002 28.6998L24.8002 46.5998V41.7998ZM15.5002 58.9998L40.0002 83.3998C29.6002 79.1998 21.4002 70.9998 15.5002 58.9998ZM11.1002 47.7998L45.9002 82.5998C47.7002 81.7998 49.5002 80.7998 51.2002 79.5998L30.8002 59.2998C29.8002 59.1998 28.8002 59.1998 27.6002 59.1998C26.1002 59.1998 24.8002 57.9998 24.8002 56.3998V53.2998L8.3002 36.8998C8.9002 39.9998 9.7002 43.2998 10.7002 46.5998C10.7502 46.7998 10.8252 46.9998 10.9002 47.1998C10.9752 47.3998 11.0502 47.5998 11.1002 47.7998ZM39.0002 60.7998L55.0002 76.7998C56.5002 75.5998 57.9002 74.2998 59.2002 72.8998L48.2002 61.8998C44.1002 61.7998 41.4002 61.2998 39.0002 60.7998ZM62.3002 69.1998L54.0002 60.9998C55.5002 60.0998 56.2002 58.8998 56.5002 58.1998C56.8002 57.4998 57.0002 56.6998 57.0002 55.8998L65.5002 64.3998C64.5002 66.0998 63.4002 67.6998 62.3002 69.1998ZM58.2002 50.2998L68.0002 60.0998C68.9002 58.2998 69.7002 56.4998 70.5002 54.4998L59.2002 43.1998C59.1002 43.7998 58.9002 44.3998 58.7002 44.8998C59.0002 45.8998 59.1002 46.8998 59.0002 47.7998C58.9002 48.8998 58.5002 49.7998 58.0002 50.5998C58.0502 50.5498 58.0752 50.4998 58.1002 50.4498C58.1252 50.3998 58.1502 50.3498 58.2002 50.2998Z" fill="black"/>
</g>
<defs>
<clipPath id="clip0">
<rect width="358" height="275" fill="white" transform="translate(-137)"/>
</clipPath>
</defs>
</svg>
